<?xml version="1.0" encoding="iso-8859-1"?>
<!-- Generator: Adobe Illustrator 19.0.0, SVG Export Plug-In . SVG Version: 6.00 Build 0)  -->
<svg version="1.1" id="Capa_1" xmlns="http://www.w3.org/2000/svg" xmlns:xlink="http://www.w3.org/1999/xlink" x="0px" y="0px"
	 viewBox="0 0 512 512" style="enable-background:new 0 0 512 512;" xml:space="preserve">
<path style="fill:#E7E7F2;" d="M315.949,140.431c-6.752-8.951-20.211-20.12-45.981-22.497c-12.706-1.172-25.258-1.34-37.397-1.503
	c-24.67-0.33-47.974-0.643-71.522-8.875c-5.734-2.004-12.972-4.93-18.084-9.799c-3.975-3.786-6.586-9.978-6.652-15.773
	c-0.033-2.902,0.577-7.01,3.668-10.092c2.264-2.257,2.849-5.7,1.456-8.578c-1.392-2.878-4.46-4.561-7.63-4.182
	c-29.18,3.444-55.586,17.115-74.355,38.495c-17.24,19.639-26.101,44.142-23.701,65.544c2.707,24.144,19.958,44.054,41.022,47.341
	c0.383,0.06,0.77,0.09,1.156,0.09c0.328,0,0.657-0.021,0.983-0.064l238.78-31.57c3.211-0.425,5.787-2.863,6.387-6.047
	C326.158,161.88,323.195,150.038,315.949,140.431z"/>
<path style="fill:#BCBCCE;" d="M315.949,140.431c-6.752-8.951-20.211-20.12-45.981-22.497c-12.706-1.172-25.258-1.34-37.397-1.503
	c-24.67-0.33-47.974-0.643-71.522-8.875c-5.734-2.004-12.972-4.93-18.084-9.799c-3.975-3.786-6.586-9.978-6.652-15.773
	c-0.033-2.902,0.577-7.01,3.668-10.092c2.264-2.257,2.849-5.7,1.456-8.578c-1.392-2.878-4.46-4.561-7.63-4.182
	c-5.518,0.651-10.937,1.67-16.224,3.036c2.4,0.344,4.548,2.014,5.636,4.562c1.35,3.161,0.783,6.943-1.412,9.422
	c-2.997,3.385-3.589,7.896-3.557,11.084c0.064,6.366,2.596,13.166,6.451,17.325c4.957,5.348,11.975,8.561,17.535,10.762
	c22.833,9.042,45.43,9.385,69.352,9.748c11.771,0.179,23.941,0.364,36.263,1.651c24.988,2.611,38.039,14.878,44.587,24.709
	c5.892,8.848,8.85,19.421,8.466,29.755l16.788-2.22c3.211-0.425,5.787-2.863,6.387-6.047
	C326.158,161.88,323.195,150.038,315.949,140.431z"/>
<path style="fill:#7EBFE7;" d="M321.354,161.677H30.821c-4.143,0-7.5,3.357-7.5,7.5v52.336c0,4.143,3.357,7.5,7.5,7.5h290.533
	c4.143,0,7.5-3.357,7.5-7.5v-52.336C328.854,165.035,325.496,161.677,321.354,161.677z"/>
<g>
	<path style="fill:#3E91D9;" d="M321.354,161.677h-30.091c3.724,0,6.743,3.357,6.743,7.5v52.336c0,4.143-3.018,7.5-6.743,7.5h30.091
		c4.143,0,7.5-3.357,7.5-7.5v-52.336C328.854,165.035,325.496,161.677,321.354,161.677z"/>
	<path style="fill:#3E91D9;" d="M335.594,202.845H16.581c-4.143,0-7.5-3.357-7.5-7.5c0-4.143,3.357-7.5,7.5-7.5h319.012
		c4.142,0,7.5,3.357,7.5,7.5C343.094,199.488,339.736,202.845,335.594,202.845z"/>
</g>
<path style="fill:#E8C778;" d="M344.675,214.013H7.5c-4.143,0-7.5,3.357-7.5,7.5v175.571c0,30.789,25.048,55.838,55.838,55.838
	h240.499c30.79,0,55.838-25.049,55.838-55.838V221.513C352.175,217.371,348.817,214.013,344.675,214.013z"/>
<path style="fill:#D99A4A;" d="M344.675,214.013h-29.804c3.785,0,6.852,3.357,6.852,7.5v175.571
	c0,30.789-22.882,55.838-51.01,55.838h25.624c30.79,0,55.838-25.049,55.838-55.838V221.513
	C352.175,217.371,348.817,214.013,344.675,214.013z"/>
<path style="fill:#E8C778;" d="M508.63,370.658l-82.256-225.994c-10.53-28.932-42.634-43.905-71.568-33.374l-28.147,10.244
	c-3.892,1.417-5.899,5.721-4.482,9.613l115.32,316.841c0.681,1.869,2.075,3.392,3.878,4.231c1.003,0.468,2.085,0.703,3.17,0.703
	c0.867,0,1.735-0.15,2.565-0.452l28.146-10.244C504.189,431.695,519.159,399.59,508.63,370.658z"/>
<path style="fill:#D99A4A;" d="M508.63,370.658l-82.256-225.994c-8.701-23.903-32.129-38.263-56.328-36.597
	c10.88,6.342,19.693,16.365,24.327,29.097l82.256,225.994c10.529,28.933-4.441,61.037-33.374,71.568l-9.346,3.402l3.589,9.86
	c0.681,1.869,2.075,3.392,3.878,4.231c1.003,0.468,2.085,0.703,3.17,0.703c0.867,0,1.735-0.15,2.565-0.452l28.146-10.244
	C504.189,431.695,519.159,399.59,508.63,370.658z"/>
<circle style="fill:#FFFFFF;" cx="176.083" cy="335.527" r="80.322"/>
<path style="fill:#E36F91;" d="M138.047,319.673h22.189v-22.189c0-2.088,1.692-3.78,3.78-3.78h24.141c2.088,0,3.78,1.692,3.78,3.78
	v22.189h22.19c2.088,0,3.78,1.692,3.78,3.78v24.141c0,2.088-1.692,3.78-3.78,3.78h-22.19v22.19c0,2.088-1.692,3.78-3.78,3.78
	h-24.141c-2.088,0-3.78-1.692-3.78-3.78v-22.19h-22.189c-2.088,0-3.78-1.692-3.78-3.78v-24.141
	C134.267,321.365,135.96,319.673,138.047,319.673z"/>
<g>
</g>
<g>
</g>
<g>
</g>
<g>
</g>
<g>
</g>
<g>
</g>
<g>
</g>
<g>
</g>
<g>
</g>
<g>
</g>
<g>
</g>
<g>
</g>
<g>
</g>
<g>
</g>
<g>
</g>
</svg>
