<svg height="512pt" viewBox="0 -8 512 511" width="512pt" xmlns="http://www.w3.org/2000/svg"><path d="m40.921875 190.816406c-2.507813-6.058594-3.898437-12.695312-3.898437-19.660156 0-28.363281 22.992187-51.355469 51.347656-51.355469h202.003906c18.792969 0 36.953125-7.226562 50.296875-20.464843.089844-.089844.175781-.1875.273437-.273438 26.660157-26.660156 34.539063-65.003906 23.625-98.5625 14.066407 4.574219 27.292969 12.449219 38.46875 23.628906 25.941407 25.941406 34.105469 62.941406 24.464844 95.835938 13.265625.992187 25.132813 7.023437 33.683594 16.195312 8.550781 9.164063 13.785156 21.46875 13.785156 34.996094 0 6.964844-1.390625 13.597656-3.902344 19.660156" fill="#cdcfe0"/><path d="m381.523438 99.335938c.085937-.089844.175781-.1875.273437-.273438 18.53125-18.53125 27.976563-42.707031 28.359375-66.996094-2.203125-2.742187-4.570312-5.398437-7.113281-7.941406-11.175781-11.175781-24.40625-19.054688-38.472657-23.625 10.914063 33.558594 3.035157 71.898438-23.625 98.5625-.097656.085938-.183593.183594-.269531.273438-13.347656 13.234374-31.507812 20.464843-50.296875 20.464843h40.847656c18.792969 0 36.953126-7.226562 50.296876-20.464843zm0 0" fill="#abaec4"/><path d="m129.21875 119.800781h-40.847656c-28.355469 0-51.347656 22.992188-51.347656 51.355469 0 6.964844 1.390624 13.597656 3.898437 19.660156h40.851563c-2.511719-6.0625-3.902344-12.695312-3.902344-19.660156 0-28.363281 22.996094-51.355469 51.347656-51.355469zm0 0" fill="#abaec4"/><path d="m18.386719 206.789062h475.222656v68.085938h-475.222656zm0 0" fill="#575f64"/><path d="m18.386719 212.015625h475.222656v24.015625h-475.222656zm0 0" fill="#2b2f3a"/><path d="m18.386719 206.789062h57.878906v68.085938h-57.878906zm0 0" fill="#2b2f3a"/><path d="m512 257.855469v141.289062c0 52.820313-42.820312 95.640625-95.640625 95.640625h-320.726563c-52.820312 0-95.62890575-42.820312-95.62890575-95.640625v-141.289062zm0 0" fill="#2d9e7b"/><path d="m512 257.855469v141.289062c0 52.820313-42.820312 95.640625-95.640625 95.640625h-224.734375c-52.808594 0-95.628906-42.820312-95.628906-95.640625v-141.289062zm0 0" fill="#72d6b7"/><path d="m512 206.792969c0 9.402343-7.628906 17.019531-17.019531 17.019531h-477.957031c-4.699219 0-8.953126-1.902344-12.035157-4.984375s-4.98437475-7.335937-4.98437475-12.035156c0-9.40625 7.61718775-17.023438 17.01953175-17.023438h477.957031c4.691406 0 8.953125 1.902344 12.035156 4.984375 3.082031 3.082032 4.984375 7.335938 4.984375 12.039063zm0 0" fill="#2b2f3a"/><path d="m512 206.792969c0 9.402343-7.628906 17.019531-17.019531 17.019531h-394.898438c-4.703125 0-8.953125-1.902344-12.035156-4.984375s-4.984375-7.335937-4.984375-12.035156c0-9.40625 7.617188-17.023438 17.019531-17.023438h394.898438c4.691406 0 8.953125 1.902344 12.035156 4.984375 3.082031 3.082032 4.984375 7.335938 4.984375 12.039063zm0 0" fill="#575f64"/><path d="m0 257.855469h511.996094v52.058593h-511.996094zm0 0" fill="#cdcfe0"/><path d="m0 257.855469h95.996094v52.058593h-95.996094zm0 0" fill="#abaec4"/></svg>