<svg xmlns="http://www.w3.org/2000/svg" height="512pt" version="1.1" viewBox="-83 0 512 512.00009" width="512pt">
<g id="surface1">
<path d="M 217 512 C 212.210938 512 208.324219 508.117188 208.324219 503.324219 L 208.324219 468.617188 C 208.324219 463.828125 212.210938 459.941406 217 459.941406 C 221.792969 459.941406 225.675781 463.828125 225.675781 468.617188 L 225.675781 503.324219 C 225.675781 508.117188 221.792969 512 217 512 Z M 217 512 " style=" stroke:none;fill-rule:nonzero;fill:rgb(73.72549%,74.509804%,75.294118%);fill-opacity:1;" />
<path d="M 243.03125 86.855469 C 245.980469 86.855469 248.84375 86.941406 251.707031 87.199219 L 251.707031 52.148438 L 182.296875 52.148438 L 182.296875 87.199219 C 185.160156 86.941406 188.023438 86.855469 190.972656 86.855469 Z M 243.03125 86.855469 " style=" stroke:none;fill-rule:nonzero;fill:rgb(50.196078%,50.980392%,52.156863%);fill-opacity:1;" />
<path d="M 295.089844 52.148438 C 304.644531 52.078125 312.371094 44.347656 312.441406 34.796875 C 312.414062 25.222656 304.660156 17.472656 295.089844 17.441406 L 64.816406 17.441406 C 55.277344 0.816406 34.070312 -4.929688 17.441406 4.605469 C 0.816406 14.144531 -4.929688 35.355469 4.605469 51.980469 C 7.671875 57.320312 12.101562 61.75 17.441406 64.816406 L 17.441406 485.972656 C 17.441406 495.554688 25.210938 503.324219 34.796875 503.324219 C 44.378906 503.324219 52.148438 495.554688 52.148438 485.972656 L 52.148438 64.816406 C 57.421875 61.796875 61.796875 57.421875 64.816406 52.148438 Z M 34.796875 43.472656 C 30.003906 43.472656 26.117188 39.585938 26.117188 34.796875 C 26.117188 30.003906 30.003906 26.117188 34.796875 26.117188 C 39.585938 26.117188 43.472656 30.003906 43.472656 34.796875 C 43.472656 39.585938 39.589844 43.472656 34.796875 43.472656 Z M 34.796875 43.472656 " style=" stroke:none;fill-rule:nonzero;fill:rgb(81.960784%,82.745098%,83.137255%);fill-opacity:1;" />
<path d="M 190.972656 442.589844 C 188.421875 442.605469 185.875 442.488281 183.335938 442.242188 C 187.996094 460.832031 206.84375 472.128906 225.4375 467.46875 C 237.855469 464.355469 247.554688 454.660156 250.664062 442.242188 C 248.128906 442.488281 245.578125 442.605469 243.03125 442.589844 Z M 190.972656 442.589844 " style=" stroke:none;fill-rule:nonzero;fill:rgb(50.196078%,50.980392%,52.156863%);fill-opacity:1;" />
<path d="M 43.472656 34.796875 C 43.472656 39.585938 39.585938 43.472656 34.796875 43.472656 C 30.003906 43.472656 26.117188 39.585938 26.117188 34.796875 C 26.117188 30.003906 30.003906 26.117188 34.796875 26.117188 C 39.585938 26.117188 43.472656 30.003906 43.472656 34.796875 Z M 43.472656 34.796875 " style=" stroke:none;fill-rule:nonzero;fill:rgb(100%,68.627451%,27.45098%);fill-opacity:1;" />
<path d="M 243.03125 442.589844 L 190.972656 442.589844 C 133.46875 442.589844 86.855469 395.972656 86.855469 338.472656 L 86.855469 199.648438 L 347.148438 199.648438 L 347.148438 338.472656 C 347.148438 395.972656 300.53125 442.589844 243.03125 442.589844 Z M 243.03125 442.589844 " style=" stroke:none;fill-rule:nonzero;fill:rgb(47.058824%,72.54902%,92.156863%);fill-opacity:1;" />
<path d="M 190.972656 86.855469 L 243.03125 86.855469 C 300.53125 86.855469 347.148438 133.46875 347.148438 190.972656 L 347.148438 199.648438 L 86.855469 199.648438 L 86.855469 190.972656 C 86.855469 133.46875 133.46875 86.855469 190.972656 86.855469 Z M 190.972656 86.855469 " style=" stroke:none;fill-rule:nonzero;fill:rgb(90.196078%,90.588235%,90.980392%);fill-opacity:1;" />
<path d="M 269.058594 234.355469 L 347.148438 234.355469 L 347.148438 251.707031 L 269.058594 251.707031 Z M 269.058594 234.355469 " style=" stroke:none;fill-rule:nonzero;fill:rgb(10.196078%,43.529412%,69.019608%);fill-opacity:1;" />
<path d="M 303.765625 269.058594 L 347.148438 269.058594 L 347.148438 286.414062 L 303.765625 286.414062 Z M 303.765625 269.058594 " style=" stroke:none;fill-rule:nonzero;fill:rgb(10.196078%,43.529412%,69.019608%);fill-opacity:1;" />
<path d="M 269.058594 303.765625 L 347.148438 303.765625 L 347.148438 321.117188 L 269.058594 321.117188 Z M 269.058594 303.765625 " style=" stroke:none;fill-rule:nonzero;fill:rgb(10.196078%,43.529412%,69.019608%);fill-opacity:1;" />
<path d="M 303.765625 338.472656 L 347.148438 338.472656 L 347.148438 355.824219 L 303.765625 355.824219 Z M 303.765625 338.472656 " style=" stroke:none;fill-rule:nonzero;fill:rgb(10.196078%,43.529412%,69.019608%);fill-opacity:1;" />
<path d="M 34.796875 52.148438 C 25.210938 52.148438 17.441406 44.378906 17.441406 34.796875 C 17.441406 25.210938 25.210938 17.441406 34.796875 17.441406 C 44.378906 17.441406 52.148438 25.210938 52.148438 34.796875 C 52.148438 44.378906 44.378906 52.148438 34.796875 52.148438 Z M 34.796875 52.148438 " style=" stroke:none;fill-rule:nonzero;fill:rgb(65.490196%,66.27451%,67.45098%);fill-opacity:1;" />
</g>
</svg>