<?xml version="1.0" encoding="iso-8859-1"?>
<!-- Generator: Adobe Illustrator 19.0.0, SVG Export Plug-In . SVG Version: 6.00 Build 0)  -->
<svg version="1.1" id="Capa_1" xmlns="http://www.w3.org/2000/svg" xmlns:xlink="http://www.w3.org/1999/xlink" x="0px" y="0px"
	 viewBox="0 0 512 512" style="enable-background:new 0 0 512 512;" xml:space="preserve">
<path style="fill:#17ACE8;" d="M351.301,351.399L230.4,472.3c-52.5,52.8-138.3,52.8-190.8,0c-52.8-52.5-52.8-138.3,0-190.8
	l120.899-120.901l56.1-3.9L328.2,268.3L351.301,351.399z"/>
<path style="fill:#1689FC;" d="M351.301,351.399L230.4,472.3c-52.5,52.8-138.3,52.8-190.8,0l246.299-246.301L328.2,268.3
	L351.301,351.399z"/>
<path style="fill:#E5E5E5;" d="M472.2,230.5L351.301,351.399l-95.402-95.4l-95.4-95.4L281.4,39.7c52.5-52.8,138.3-52.8,190.8,0
	C525,92.2,525,178,472.2,230.5z"/>
<path style="fill:#D9D9D9;" d="M472.2,230.5L351.301,351.399l-95.402-95.4L472.2,39.7C525,92.2,525,178,472.2,230.5z"/>
<path style="fill:#FCBF29;" d="M512,376.9c0,74.399-60.601,135-135,135l-30-25.668V273.15l30-31.25
	C451.399,241.9,512,302.499,512,376.9z"/>
<path style="fill:#FEDB41;" d="M377,241.9c-74.399,0-135,60.599-135,135c0,74.399,60.601,135,135,135V241.9z"/>
<g>
</g>
<g>
</g>
<g>
</g>
<g>
</g>
<g>
</g>
<g>
</g>
<g>
</g>
<g>
</g>
<g>
</g>
<g>
</g>
<g>
</g>
<g>
</g>
<g>
</g>
<g>
</g>
<g>
</g>
</svg>
