<?xml version="1.0" encoding="iso-8859-1"?>
<!-- Generator: Adobe Illustrator 19.0.0, SVG Export Plug-In . SVG Version: 6.00 Build 0)  -->
<svg version="1.1" id="Capa_1" xmlns="http://www.w3.org/2000/svg" xmlns:xlink="http://www.w3.org/1999/xlink" x="0px" y="0px"
	 viewBox="0 0 512 512" style="enable-background:new 0 0 512 512;" xml:space="preserve">
<g>
	<path style="fill:#5B5B5B;" d="M149.333,68.267c-9.762,0.06-19.294-2.995-27.204-8.713c-2.159-1.485-4.156-3.174-5.973-5.06
		c-8.866-8.755-13.824-20.702-13.756-33.161V0h17.067v21.333c-0.051,7.91,3.098,15.505,8.721,21.06
		c1.118,1.169,2.355,2.227,3.686,3.149c13.38,9.643,32.051,6.613,41.694-6.775c3.661-5.077,5.632-11.179,5.632-17.434V0h17.067
		v21.333c0,15.223-7.39,29.508-19.831,38.289C168.542,65.306,159.053,68.326,149.333,68.267z"/>
	<rect x="187.733" y="17.067" style="fill:#5B5B5B;" width="264.533" height="17.067"/>
	<path style="fill:#5B5B5B;" d="M179.2,93.867h-59.733c-4.71,0-8.533-3.823-8.533-8.533v-12.8
		c-0.034-21.171,17.109-38.366,38.281-38.4c10.24-0.017,20.07,4.07,27.281,11.341c0.597,0.58,1.169,1.186,1.707,1.826
		c6.204,6.929,9.6,15.932,9.532,25.233v12.8C187.733,90.044,183.91,93.867,179.2,93.867z M128,76.8h42.667v-4.267
		c0-5.214-1.937-10.249-5.436-14.114l-0.785-0.853c-8.576-8.329-22.281-8.132-30.609,0.444c-0.102,0.111-0.205,0.213-0.316,0.324
		c-3.541,3.883-5.504,8.943-5.521,14.199V76.8z"/>
	<polygon style="fill:#5B5B5B;" points="503.467,0 503.467,512 452.267,512 452.267,25.6 452.267,0 	"/>
</g>
<path style="fill:#62BEFF;" d="M298.667,119.467v303.701c-0.009,7.714-3.081,15.113-8.533,20.565L273.067,460.8
	c-5.453,5.453-12.851,8.525-20.565,8.533H54.528c-7.595,0.009-14.882-2.97-20.309-8.277l-16.896-16.384
	c-5.615-5.504-8.781-13.039-8.789-20.907V119.467c0-18.85,15.283-34.133,34.133-34.133h221.867
	C283.383,85.333,298.667,100.617,298.667,119.467z M264.533,421.035V119.467H42.667v302.165L56.576,435.2h193.792L264.533,421.035z"
	/>
<path style="fill:#168DE2;" d="M42.667,392.533V230.485c20.685-19.388,53.001-18.935,73.131,1.024
	c20.506,20.48,53.734,20.48,74.24,0h0.085c20.608-20.48,53.897-20.403,74.411,0.171v189.355L250.368,435.2H56.576l-13.909-13.568
	V392.533z"/>
<path style="fill:#DAEFF6;" d="M42.667,187.733v-68.267h221.867V231.68c-20.514-20.574-53.803-20.651-74.411-0.171h-0.085
	c-20.506,20.48-53.734,20.48-74.24,0c-20.13-19.959-52.446-20.412-73.131-1.024C42.667,230.485,42.667,187.733,42.667,187.733z"/>
<rect x="145.067" y="469.333" style="fill:#86DAF1;" width="17.067" height="42.667"/>
<rect x="42.667" y="145.067" style="fill:#168DE2;" width="25.6" height="17.067"/>
<g>
	<rect x="42.667" y="349.867" style="fill:#DAEFF6;" width="25.6" height="17.067"/>
	<rect x="42.667" y="281.6" style="fill:#DAEFF6;" width="25.6" height="17.067"/>
</g>
<rect x="42.667" y="179.2" style="fill:#168DE2;" width="42.667" height="17.067"/>
<g>
	<rect x="42.667" y="384" style="fill:#DAEFF6;" width="42.667" height="17.067"/>
	<rect x="42.667" y="247.467" style="fill:#DAEFF6;" width="42.667" height="17.067"/>
	<rect x="42.667" y="315.733" style="fill:#DAEFF6;" width="42.667" height="17.067"/>
</g>
<g>
</g>
<g>
</g>
<g>
</g>
<g>
</g>
<g>
</g>
<g>
</g>
<g>
</g>
<g>
</g>
<g>
</g>
<g>
</g>
<g>
</g>
<g>
</g>
<g>
</g>
<g>
</g>
<g>
</g>
</svg>
