<svg height="511pt" viewBox="0 1 511 511.9995" width="511pt" xmlns="http://www.w3.org/2000/svg"><path d="m494.414062 102.046875-85.066406-85.066406c-3.808594-3.808594-3.808594-9.988281 0-13.800781l.324219-.320313c3.808594-3.8125 9.988281-3.8125 13.800781 0l85.0625 85.0625c3.8125 3.8125 3.8125 9.992187 0 13.800781l-.320312.324219c-3.8125 3.808594-9.992188 3.808594-13.800782 0zm0 0" fill="#737373"/><path d="m8.160156 512c-1.960937 0-3.921875-.75-5.417968-2.246094-2.992188-2.988281-2.992188-7.839844 0-10.832031l104.128906-104.128906c2.992187-2.992188 7.84375-2.992188 10.835937 0 2.988281 2.992187 2.988281 7.84375 0 10.832031l-104.128906 104.128906c-1.496094 1.496094-3.457031 2.246094-5.417969 2.246094zm0 0" fill="#737373"/><path d="m161.707031 384.714844-20.65625 20.65625c-6.285156 6.28125-16.46875 6.28125-22.75 0l-12.277343-12.28125c-6.28125-6.28125-6.28125-16.464844 0-22.746094l20.65625-20.65625" fill="#d7e4ef"/><path d="m252.632812 350.207031c-23.714843 23.714844-56.617187 35.867188-90.054687 33.257813-18.507813-1.441406-33.210937-16.144532-34.652344-34.652344-2.605469-33.433594 9.546875-66.335938 33.261719-90.050781l162.886719-162.886719 91.445312 91.441406zm0 0" fill="#d7e4ef"/><path d="m395.09375 166.890625-33.4375 33.4375-18.46875 18.464844-110.984375 110.984375c-23.714844 23.714844-56.617187 35.867187-90.050781 33.261718-4.042969-.316406-7.902344-1.261718-11.484375-2.742187 5.304687 12.8125 17.445312 22.042969 31.910156 23.167969 33.4375 2.609375 66.339844-9.546875 90.054687-33.257813l110.980469-110.984375 51.90625-51.90625zm0 0" fill="#c1ccd6"/><path d="m312.757812 290.082031s-28.542968 1.554688-48.460937-42.988281c-19.914063-44.539062-45.71875-45.71875-45.71875-45.71875l-57.390625 57.386719c-23.714844 23.714843-35.867188 56.617187-33.261719 90.054687 1.445313 18.507813 16.144531 33.210938 34.652344 34.652344 33.4375 2.605469 66.339844-9.546875 90.054687-33.261719zm0 0" fill="#5b9ed6"/><path d="m284.789062 277.195312-52.585937 52.582032c-23.714844 23.714844-56.617187 35.867187-90.050781 33.261718-4.042969-.316406-7.902344-1.261718-11.484375-2.742187 5.304687 12.8125 17.445312 22.042969 31.910156 23.167969 33.4375 2.609375 66.339844-9.546875 90.054687-33.257813l60.125-60.128906c0 .003906-13.234374.71875-27.96875-12.882813zm0 0" fill="#4f8aba"/><path d="m429.382812 201.183594-119.171874-119.175782c-4.691407-4.691406-4.691407-12.296874 0-16.984374l.394531-.394532c4.691406-4.691406 12.296875-4.691406 16.988281 0l119.171875 119.171875c4.691406 4.691407 4.691406 12.296875 0 16.984375l-.394531.398438c-4.691406 4.6875-12.296875 4.6875-16.988282 0zm0 0" fill="#b1bac4"/><path d="m434.152344 171.183594-17.382813 17.382812 12.417969 12.417969c4.800781 4.800781 12.582031 4.800781 17.382812 0 4.800782-4.800781 4.800782-12.582031 0-17.382813zm0 0" fill="#8f969e"/><path d="m354.828125 91.863281 64.699219-64.699219 64.699218 64.699219-64.699218 64.699219zm0 0" fill="#bdbdbd"/><path d="m419.53125 27.164062-10.980469 10.976563 33.964844 33.964844c7.042969 7.046875 7.042969 18.464843 0 25.507812l-40.964844 40.96875-46.71875-46.71875 64.699219 64.699219 64.699219-64.699219zm0 0" fill="#a1a1a1"/><g fill="#737373"><path d="m315.25 158.558594c-1.960938 0-3.917969-.75-5.414062-2.246094l-22.546876-22.546875c-2.992187-2.988281-2.992187-7.839844 0-10.832031 2.992188-2.992188 7.839844-2.992188 10.832032 0l22.546875 22.546875c2.992187 2.992187 2.992187 7.84375 0 10.832031-1.496094 1.496094-3.457031 2.246094-5.417969 2.246094zm0 0"/><path d="m288.324219 185.480469c-1.957031 0-3.917969-.746094-5.414063-2.242188l-22.546875-22.546875c-2.992187-2.992187-2.992187-7.84375 0-10.832031 2.992188-2.992187 7.84375-2.992187 10.832031 0l22.546876 22.546875c2.992187 2.992188 2.992187 7.839844 0 10.832031-1.496094 1.496094-3.453126 2.242188-5.417969 2.242188zm0 0"/><path d="m281.679688 232.683594c-1.957032 0-3.917969-.746094-5.414063-2.242188l-42.828125-42.824218c-2.988281-2.992188-2.988281-7.84375 0-10.835938 2.992188-2.988281 7.84375-2.988281 10.835938 0l42.824218 42.828125c2.992188 2.992187 2.992188 7.839844 0 10.832031-1.496094 1.496094-3.457031 2.242188-5.417968 2.242188zm0 0"/><path d="m234.476562 239.332031c-1.960937 0-3.921874-.75-5.417968-2.246093l-22.542969-22.542969c-2.992187-2.992188-2.992187-7.84375 0-10.835938 2.988281-2.992187 7.839844-2.992187 10.832031 0l22.546875 22.546875c2.988281 2.992188 2.988281 7.84375 0 10.832032-1.496093 1.496093-3.457031 2.246093-5.417969 2.246093zm0 0"/><path d="m207.554688 266.253906c-1.960938 0-3.921876-.746094-5.417969-2.242187l-22.546875-22.546875c-2.992188-2.992188-2.992188-7.84375 0-10.832032 2.992187-2.992187 7.84375-2.992187 10.832031 0l22.546875 22.546876c2.992188 2.988281 2.992188 7.839843 0 10.832031-1.496094 1.496093-3.457031 2.242187-5.414062 2.242187zm0 0"/><path d="m200.90625 313.460938c-1.960938 0-3.921875-.75-5.417969-2.246094l-42.824219-42.824219c-2.992187-2.992187-2.992187-7.84375 0-10.832031 2.992188-2.992188 7.84375-2.992188 10.835938 0l42.824219 42.824218c2.992187 2.992188 2.992187 7.84375 0 10.832032-1.496094 1.496094-3.457031 2.246094-5.417969 2.246094zm0 0"/></g></svg>