<svg id="Capa_1" enable-background="new 0 0 512 512" height="512" viewBox="0 0 512 512" width="512" xmlns="http://www.w3.org/2000/svg"><g><path d="m250.648 387.729v-2.32c0-16.132 11.803-30.662 27.198-33.344l.052-.493h-.112c-7.273 0-13.223-5.95-13.223-13.223v-15.829c0-7.272 5.95-13.223 13.223-13.223h4.554l28.058-267.021h-253.703l36.18 345.342c1.116 10.618 10.068 18.679 20.744 18.679h137.029z" fill="#fee55a"/><path d="m131.597 387.618-36.18-345.343h-38.722l36.18 345.342c1.116 10.618 10.068 18.679 20.744 18.679h38.722c-10.676.001-19.628-8.061-20.744-18.678z" fill="#ffd301"/><path d="m318.763 0h-270.432c-4.394 0-7.956 3.562-7.956 7.956v27.393c0 4.394 3.562 7.956 7.956 7.956h270.432c4.394 0 7.956-3.562 7.956-7.956v-27.393c0-4.394-3.562-7.956-7.956-7.956z" fill="#ffd301"/><path d="m86.371 35.349v-27.393c0-4.394 3.562-7.956 7.956-7.956h-45.996c-4.394 0-7.956 3.562-7.956 7.956v27.393c0 4.394 3.562 7.956 7.956 7.956h45.996c-4.394 0-7.956-3.562-7.956-7.956z" fill="#ffc20c"/><path d="m250.657 479.023c-.001-.116-.009-.23-.009-.346v-2.319-70.754c-.94-.214-1.913-.337-2.915-.337h-128.372c-7.272 0-13.223 5.95-13.223 13.223v60.532h144.519z" fill="#d9edff"/><path d="m158.334 405.267h-38.973c-7.272 0-13.223 5.95-13.223 13.223v60.532h38.973v-60.532c0-7.272 5.95-13.223 13.223-13.223z" fill="#b1dbfc"/><path d="m222.252 480.052v-20.791c0-7.273-5.95-13.223-13.223-13.223h-50.963c-7.273 0-13.223 5.95-13.223 13.223v20.791z" fill="#8bcaff"/><path d="m194.943 446.038h-36.878c-7.273 0-13.223 5.95-13.223 13.223v20.791h36.878v-20.791c0-7.273 5.951-13.223 13.223-13.223z" fill="#60b8fe"/><path d="m284.733 286.528 14.053-133.738c-26.142-25.156-68.025-41.459-115.239-41.459s-89.097 16.303-115.239 41.459l14.053 133.738c25.941 18.448 61.699 29.852 101.186 29.852s75.246-11.404 101.186-29.852z" fill="#ffd301"/><path d="m104.432 128.327c-13.938 6.599-26.174 14.887-36.125 24.462l14.053 133.738c11.761 8.364 25.546 15.274 40.776 20.336z" fill="#ffc20c"/><path d="m250.648 478.677v-.684h-144.51v20.269c0 7.273 5.95 13.223 13.223 13.223h128.373c5.985 0 11.072-4.03 12.686-9.51-6.024-5.956-9.772-14.209-9.772-23.298z" fill="#b1dbfc"/><path d="m145.111 498.263v-20.269h-38.973v20.269c0 7.273 5.95 13.223 13.223 13.223h38.973c-7.273 0-13.223-5.951-13.223-13.223z" fill="#8bcaff"/><path d="m438.302 351.057h-154.845c-18.375 0-33.323 14.948-33.323 33.323v94.297c0 18.375 14.948 33.323 33.323 33.323h154.845c18.375 0 33.323-14.948 33.323-33.323v-94.297c0-18.375-14.948-33.323-33.323-33.323z" fill="#43cb8e"/><path d="m292.673 478.677v-94.297c0-18.375 14.948-33.323 33.323-33.323h-42.539c-18.375 0-33.323 14.948-33.323 33.323v94.297c0 18.375 14.948 33.323 33.323 33.323h42.539c-18.375 0-33.323-14.948-33.323-33.323z" fill="#00ba66"/><path d="m414.231 416.009h-15.758c-3.259 0-6.51.422-9.661 1.253-.269.071-.433.344-.37.615 3.515 15.02-.845 30.445-11.662 41.262l-13.199 13.199c-.185.186-.394.353-.639.51-.163.105-.253.292-.234.484.02.192.145.358.326.428.495.192 1.002.289 1.506.289h15.757c21.013 0 38.108-17.095 38.108-38.108v-15.758c0-2.301-1.873-4.174-4.174-4.174z" fill="#bf80e2"/><path d="m386.848 466.802c11.776-9.765 17.55-24.717 15.447-39.999-.038-.276.151-.532.426-.578 3.215-.535 6.491-.652 9.736-.349l5.948.555v-6.248c0-2.302-1.873-4.174-4.174-4.174h-15.758c-3.259 0-6.51.422-9.661 1.253-.269.071-.433.344-.37.615 3.515 15.02-.845 30.445-11.662 41.262l-13.199 13.199c-.185.186-.394.353-.639.51-.163.105-.253.292-.234.484.02.192.145.358.326.428.495.192 1.002.289 1.506.289h13.569z" fill="#b066db"/><path d="m358.818 472.847c-.244-.157-.453-.324-.64-.511l-13.199-13.199c-10.817-10.818-15.177-26.242-11.662-41.262.063-.271-.1-.544-.37-.615-3.152-.831-6.403-1.253-9.661-1.253h-15.758c-2.302 0-4.174 1.873-4.174 4.174v15.758c0 21.013 17.095 38.108 38.108 38.108h15.757c.505 0 1.011-.098 1.506-.289.18-.07.306-.236.326-.428.019-.191-.071-.379-.233-.483z" fill="#bf80e2"/><path d="m316.39 435.696v-16.183c0-1.449.727-2.727 1.831-3.504h-10.693c-2.302 0-4.174 1.873-4.174 4.174v15.758c0 21.013 17.095 38.108 38.108 38.108h6.261c-17.854-3.627-31.333-19.445-31.333-38.353z" fill="#b066db"/><g><path d="m243.288 177.982-7.511-16.58c-.501-1.106-1.404-1.951-2.54-2.379s-2.371-.388-3.479.113l-16.58 7.511c-2.798 1.267-5.481 2.848-7.976 4.7-.075.055-.122.141-.128.233-.007.093.027.184.093.25l.268.268c7.888 7.888 13.405 17.82 15.955 28.722.028.12.124.211.244.238.023.005.045.007.068.007.037 0 .073-.006.107-.018 4.194-1.104 8.519-1.664 12.856-1.664h12.064c.168 0 .307-.129.319-.297.527-7.214-.774-14.511-3.76-21.104z" fill="#bf80e2"/><path d="m226.929 180.984c-.788-1.139-1.08-2.549-.827-3.911.32-1.722 1.48-3.171 3.089-3.864.926-.399 1.864-.764 2.812-1.092l7.462-2.576-3.687-8.139c-.501-1.106-1.404-1.951-2.54-2.379s-2.371-.388-3.479.113l-16.58 7.511c-2.798 1.267-5.481 2.848-7.976 4.7-.075.055-.122.141-.128.233-.007.093.027.184.093.25l.268.268c7.888 7.888 13.405 17.82 15.955 28.722.028.12.124.211.244.238.023.005.045.007.068.007.037 0 .073-.006.107-.018 4.194-1.104 8.519-1.664 12.856-1.664h.807c-1.783-6.577-4.667-12.797-8.544-18.399z" fill="#b066db"/><path d="m161.891 171.347c-2.494-1.851-5.177-3.432-7.976-4.7l-16.58-7.511c-1.106-.501-2.342-.541-3.479-.113s-2.039 1.273-2.54 2.379l-7.511 16.58c-2.986 6.592-4.286 13.889-3.76 21.104.012.168.151.297.319.297h12.064c4.344 0 8.677.562 12.878 1.67.001 0 .006.002.008.002.026.007.052.01.078.01.058 0 .116-.016.167-.047.073-.045.126-.117.145-.2 2.55-10.9 8.068-20.831 15.955-28.719l.268-.268c.066-.066.1-.157.093-.25-.008-.093-.055-.179-.129-.234z" fill="#bf80e2"/><path d="m137.087 182.463 7.511-16.58c.489-1.079 1.36-1.906 2.457-2.343l-9.72-4.403c-1.106-.501-2.342-.541-3.479-.113s-2.039 1.273-2.54 2.379l-7.511 16.58c-2.986 6.592-4.286 13.889-3.76 21.104.012.168.151.297.319.297h12.064c.266 0 .532.009.799.013.139-5.829 1.449-11.612 3.86-16.934z" fill="#b066db"/><path d="m256.092 198.743h-21.427c-4.399 0-8.787.569-13.041 1.691-.168.044-.269.214-.23.382 4.81 20.552-1.156 41.659-15.958 56.462l-17.947 17.947c-.272.272-.577.516-.933.745-.101.065-.158.182-.145.301.012.12.091.223.203.266.63.244 1.273.368 1.91.368h21.427c28.363 0 51.439-23.075 51.439-51.439v-21.426c-.001-2.921-2.377-5.297-5.298-5.297z" fill="#bf80e2"/><path d="m216.495 267.417c15.978-13.526 23.671-34.066 20.579-54.946-.025-.171.09-.332.261-.362 4.332-.766 8.752-.969 13.136-.605l10.918.907v-8.371c0-2.921-2.376-5.297-5.297-5.297h-21.427c-4.399 0-8.787.569-13.041 1.691-.168.044-.269.214-.23.382 4.81 20.552-1.156 41.659-15.958 56.462l-17.947 17.947c-.272.272-.577.516-.933.745-.101.065-.158.182-.145.301.012.12.091.223.203.266.63.244 1.273.368 1.91.368h16.763z" fill="#b066db"/><path d="m180.538 275.97c-.354-.228-.659-.472-.933-.745l-17.947-17.947c-14.803-14.802-20.769-35.91-15.959-56.461.039-.168-.063-.338-.23-.382-4.254-1.122-8.642-1.691-13.041-1.691h-21.427c-2.92 0-5.296 2.376-5.296 5.297v21.427c0 28.363 23.075 51.439 51.439 51.439h21.427c.637 0 1.28-.124 1.91-.368.112-.043.191-.146.203-.266.011-.121-.045-.238-.146-.303z" fill="#bf80e2"/><path d="m124.055 225.236v-22.036c0-1.842.907-3.47 2.289-4.457h-15.343c-2.92 0-5.296 2.376-5.296 5.297v21.427c0 28.363 23.075 51.439 51.439 51.439h7.865c-23.388-5.195-40.954-26.383-40.954-51.67z" fill="#b066db"/><path d="m205.888 171.646-17.947-17.947c-2.423-2.423-6.366-2.424-8.789 0l-17.947 17.947c-23.733 23.733-23.733 62.351 0 86.085l17.947 17.947c1.212 1.212 2.803 1.817 4.395 1.817 1.591 0 3.183-.606 4.395-1.817l17.947-17.947c23.733-23.734 23.733-62.351-.001-86.085z" fill="#bf80e2"/><path d="m190.863 257.73c-23.734-23.734-23.734-62.351 0-86.085l7.513-7.513-10.434-10.434c-2.423-2.423-6.366-2.424-8.789 0l-17.947 17.947c-23.733 23.733-23.733 62.351 0 86.085l17.947 17.947c1.212 1.212 2.803 1.817 4.395 1.817 1.591 0 3.183-.606 4.395-1.817l10.434-10.434z" fill="#b066db"/></g><path d="m443.972 308.782h-166.185c-7.575 0-13.737 6.163-13.737 13.738v15.829c0 7.575 6.162 13.737 13.737 13.737h166.185c7.575 0 13.737-6.162 13.737-13.737v-15.829c0-7.576-6.162-13.738-13.737-13.738z" fill="#d9edff"/><path d="m306.588 338.349v-15.829c0-7.575 6.162-13.738 13.737-13.738h-42.539c-7.575 0-13.737 6.163-13.737 13.738v15.829c0 7.575 6.162 13.737 13.737 13.737h42.539c-7.575 0-13.737-6.162-13.737-13.737z" fill="#b1dbfc"/><path d="m377.507 396.162-13.199-13.199c-1.89-1.89-4.968-1.89-6.858 0l-13.199 13.199c-17.563 17.563-17.563 46.14 0 63.703l13.199 13.199c.946.946 2.187 1.418 3.429 1.418s2.484-.473 3.429-1.418l13.199-13.198c17.563-17.564 17.563-46.141 0-63.704z" fill="#bf80e2"/><path d="m367.922 459.865c-17.563-17.563-17.563-46.14 0-63.703l4.793-4.793-8.406-8.406c-1.89-1.89-4.968-1.89-6.858 0l-13.199 13.199c-17.563 17.563-17.563 46.14 0 63.703l13.199 13.199c.946.946 2.187 1.418 3.429 1.418s2.484-.473 3.429-1.418l8.406-8.406z" fill="#b066db"/></g></svg>