<?xml version="1.0" encoding="iso-8859-1"?>
<!-- Generator: Adobe Illustrator 19.0.0, SVG Export Plug-In . SVG Version: 6.00 Build 0)  -->
<svg version="1.1" id="Capa_1" xmlns="http://www.w3.org/2000/svg" xmlns:xlink="http://www.w3.org/1999/xlink" x="0px" y="0px"
	 viewBox="0 0 512.058 512.058" style="enable-background:new 0 0 512.058 512.058;" xml:space="preserve">
<path style="fill:#C13110;" d="M349.007,379.145c-17.399-12.35-35.125-27.26-52.25-44.403c-3.928-3.928-7.698-7.892-11.388-11.873
	l0,0c-44.42-47.898-71.486-98.569-73.313-132.829c-3.001-0.062-5.976-0.185-9.022-0.185C105.525,189.855,0,221.758,0,260.476v79.448
	c0,38.718,79.042,70.621,176.552,70.621C237.25,410.545,317.255,397.974,349.007,379.145L349.007,379.145z"/>
<path style="fill:#C6A620;" d="M427.105,177.744c-69.288-69.367-148.136-102.912-175.651-75.361l-56.461,56.523
	c-27.516,27.542,5.985,106.478,75.282,175.846c68.979,69.058,147.747,102.188,175.607,75.317l0.044,0.044l56.461-56.523
	C529.893,326.038,496.393,247.111,427.105,177.744z"/>
<path style="fill:#E24E2A;" d="M185.574,190.041c-3.01-0.062-5.976-0.185-9.022-0.185C79.042,189.855,0,221.758,0,260.476
	s79.042,70.621,176.552,70.621c29.749,0,57.741-3.001,82.335-8.227C214.466,274.971,187.401,224.3,185.574,190.041z"/>
<path style="fill:#C13110;" d="M270.274,334.742c-3.928-3.928-7.698-7.892-11.388-11.873c-24.594,5.226-52.586,8.227-82.335,8.227
	C79.042,331.097,0,299.194,0,260.476v79.448c0,38.718,79.042,70.621,176.552,70.621c60.698,0,114.22-12.57,145.973-31.4l0,0
	C305.126,366.804,287.4,351.885,270.274,334.742z"/>
<ellipse transform="matrix(-0.7076 0.7066 -0.7066 -0.7076 804.6895 122.9474)" style="fill:#E6C82B;" cx="376.907" cy="227.964" rx="70.972" ry="177.518"/>
<g>
	<path style="fill:#C6A620;" d="M326.735,278.219c-69.288-69.367-102.788-148.295-75.282-175.846l-56.461,56.523
		c-27.516,27.542,5.985,106.478,75.282,175.846c68.979,69.058,147.747,102.188,175.607,75.317l0.044,0.044l56.461-56.523
		C474.871,381.122,396.023,347.586,326.735,278.219z"/>
	<path style="fill:#C6A620;" d="M258.754,97.227c-2.684,1.404-5.191,3.037-7.3,5.146c-2.119,2.127-3.752,4.661-5.164,7.362
		l248.788,248.991c2.684-1.404,5.191-3.037,7.309-5.155c2.119-2.119,3.752-4.643,5.164-7.353L258.754,97.227z"/>
</g>
<path style="fill:#C13110;" d="M216.055,267.847c-3.478-5.473-6.7-10.884-9.613-16.199H1.545C0.627,254.553,0,257.483,0,260.476
	s0.627,5.923,1.545,8.828h209.938C213.195,269.303,214.696,268.694,216.055,267.847z"/>
<g>
</g>
<g>
</g>
<g>
</g>
<g>
</g>
<g>
</g>
<g>
</g>
<g>
</g>
<g>
</g>
<g>
</g>
<g>
</g>
<g>
</g>
<g>
</g>
<g>
</g>
<g>
</g>
<g>
</g>
</svg>
