<?xml version="1.0" encoding="iso-8859-1"?>
<!-- Generator: Adobe Illustrator 19.0.0, SVG Export Plug-In . SVG Version: 6.00 Build 0)  -->
<svg version="1.1" id="Capa_1" xmlns="http://www.w3.org/2000/svg" xmlns:xlink="http://www.w3.org/1999/xlink" x="0px" y="0px"
	 viewBox="0 0 512.005 512.005" style="enable-background:new 0 0 512.005 512.005;" xml:space="preserve">
<g>
	<path style="fill:#E7ECED;" d="M8.64,511.999c-2.211,0-4.422-0.846-6.107-2.531c-3.377-3.377-3.377-8.836,0-12.214l120.926-120.926
		c3.369-3.377,8.845-3.377,12.214,0c3.377,3.377,3.377,8.836,0,12.214L14.746,509.468C13.062,511.161,10.851,511.999,8.64,511.999z"
		/>
	<path style="fill:#E7ECED;" d="M394.056,154.594l-36.649-36.649l47.472-47.472c16.722-16.722,35.44-31.337,55.721-43.507l0,0
		l24.427,24.427l0,0c-12.17,20.281-26.785,38.999-43.507,55.721L394.056,154.594z"/>
</g>
<path style="fill:#25AE88;" d="M503.365,78.359c-2.211,0-4.422-0.846-6.107-2.531l-61.076-61.076c-3.377-3.377-3.377-8.836,0-12.214
	c3.369-3.377,8.836-3.377,12.214,0l61.076,61.076c3.377,3.377,3.377,8.836,0,12.214C507.787,77.521,505.567,78.359,503.365,78.359z"
	/>
<path style="fill:#C6E2F7;" d="M181.451,395.219l-64.669-64.669c-5.753-5.753-5.753-15.081,0-20.842l203.345-203.345l85.503,85.503
	L202.294,395.219C196.533,400.98,187.204,400.98,181.451,395.219z"/>
<g>
	<path style="fill:#25AE88;" d="M118.579,393.423L118.579,393.423c-6.746-6.746-6.746-17.681,0-24.427l18.32-18.32l24.427,24.427
		l-18.32,18.32C136.26,400.177,125.325,400.177,118.579,393.423z"/>
	
		<rect x="297.356" y="119.585" transform="matrix(0.7071 0.7071 -0.7071 0.7071 206.6362 -225.1434)" style="fill:#25AE88;" width="155.469" height="34.55"/>
</g>
<rect x="318.646" y="141.539" transform="matrix(0.7071 0.7071 -0.7071 0.7071 219.3248 -194.5941)" style="fill:#E7ECED;" width="51.825" height="51.824"/>
<g>
	
		<rect x="317.601" y="125.344" transform="matrix(0.7071 -0.7071 0.7071 0.7071 -35.83 285.1057)" style="fill:#9BBBCE;" width="17.275" height="120.919"/>
	<path style="fill:#9BBBCE;" d="M283.487,216.301c1.684,1.684,3.896,2.531,6.107,2.531s4.422-0.846,6.107-2.531
		c3.377-3.377,3.377-8.836,0-12.214l-36.641-36.649l-12.214,12.214L283.487,216.301z"/>
	<path style="fill:#9BBBCE;" d="M246.838,252.95c1.684,1.684,3.896,2.531,6.107,2.531s4.422-0.846,6.107-2.531
		c3.377-3.377,3.377-8.836,0-12.214l-36.649-36.649l-12.214,12.214L246.838,252.95z"/>
	<path style="fill:#9BBBCE;" d="M210.197,289.59c1.684,1.684,3.896,2.531,6.107,2.531s4.422-0.846,6.107-2.531
		c3.377-3.377,3.377-8.836,0-12.214l-36.649-36.649l-12.214,12.214L210.197,289.59z"/>
	<path style="fill:#9BBBCE;" d="M173.548,326.248c1.684,1.684,3.896,2.531,6.107,2.531s4.422-0.846,6.107-2.531
		c3.377-3.377,3.377-8.836,0-12.214l-36.649-36.649l-12.214,12.214L173.548,326.248z"/>
</g>
<g>
</g>
<g>
</g>
<g>
</g>
<g>
</g>
<g>
</g>
<g>
</g>
<g>
</g>
<g>
</g>
<g>
</g>
<g>
</g>
<g>
</g>
<g>
</g>
<g>
</g>
<g>
</g>
<g>
</g>
</svg>
