<?xml version="1.0" encoding="iso-8859-1"?>
<!-- Generator: Adobe Illustrator 19.0.0, SVG Export Plug-In . SVG Version: 6.00 Build 0)  -->
<svg version="1.1" id="Capa_1" xmlns="http://www.w3.org/2000/svg" xmlns:xlink="http://www.w3.org/1999/xlink" x="0px" y="0px"
	 viewBox="0 0 512 512" style="enable-background:new 0 0 512 512;" xml:space="preserve">
<path style="fill:#7383BF;" d="M158.897,44.138v44.138h35.31v-35.31c0-9.754,7.901-17.655,17.655-17.655h97.103
	c9.754,0,17.655,7.901,17.655,17.655v35.31h35.31V44.138C361.931,19.765,342.166,0,317.793,0H203.034
	C178.662,0,158.897,19.765,158.897,44.138z"/>
<g>
	<path style="fill:#AFB6BB;" d="M211.862,123.586h-70.621V97.103c0-9.754,7.901-17.655,17.655-17.655h35.31
		c9.754,0,17.655,7.901,17.655,17.655v26.483H211.862z"/>
	<path style="fill:#AFB6BB;" d="M379.586,123.586h-70.621V97.103c0-9.754,7.901-17.655,17.655-17.655h35.31
		c9.754,0,17.655,7.901,17.655,17.655v26.483H379.586z"/>
</g>
<path style="fill:#E7ECED;" d="M441.379,414.897H70.621c-14.627,0-26.483-11.855-26.483-26.483V114.759h423.724v273.655
	C467.862,403.041,456.007,414.897,441.379,414.897z"/>
<polygon style="fill:#DD352E;" points="344.276,238.345 282.483,238.345 282.483,176.552 229.517,176.552 229.517,238.345 
	167.724,238.345 167.724,291.31 229.517,291.31 229.517,353.103 282.483,353.103 282.483,291.31 344.276,291.31 "/>
<path style="fill:#7383BF;" d="M485.517,114.759h-17.655v273.655c0,14.627-11.855,26.483-26.483,26.483H70.621
	c-14.627,0-26.483-11.855-26.483-26.483V114.759H26.483C11.855,114.759,0,126.614,0,141.241v344.276
	C0,500.145,11.855,512,26.483,512h459.034C500.145,512,512,500.145,512,485.517V141.241
	C512,126.614,500.145,114.759,485.517,114.759z"/>
<g>
</g>
<g>
</g>
<g>
</g>
<g>
</g>
<g>
</g>
<g>
</g>
<g>
</g>
<g>
</g>
<g>
</g>
<g>
</g>
<g>
</g>
<g>
</g>
<g>
</g>
<g>
</g>
<g>
</g>
</svg>
