<?xml version="1.0" encoding="iso-8859-1"?>
<!-- Generator: Adobe Illustrator 19.0.0, SVG Export Plug-In . SVG Version: 6.00 Build 0)  -->
<svg version="1.1" id="Capa_1" xmlns="http://www.w3.org/2000/svg" xmlns:xlink="http://www.w3.org/1999/xlink" x="0px" y="0px"
	 viewBox="0 0 512 512" style="enable-background:new 0 0 512 512;" xml:space="preserve">
<rect x="238.64" y="416.54" style="fill:#E2E6E7;" width="34.712" height="95.46"/>
<rect x="221.29" y="381.83" style="fill:#AFB6BB;" width="69.42" height="43.39"/>
<g>
	<path style="fill:#7383BF;" d="M256,86.78c-4.79,0-8.678-3.879-8.678-8.678V43.39c0-4.799,3.888-8.678,8.678-8.678
		c4.79,0,8.678,3.879,8.678,8.678v34.712C264.678,82.901,260.79,86.78,256,86.78z"/>
	<path style="fill:#7383BF;" d="M256,52.068c-4.79,0-8.678-3.879-8.678-8.678s3.888-8.678,8.678-8.678
		c4.782,0,8.678-3.888,8.678-8.678s-3.896-8.678-8.678-8.678s-8.678,3.888-8.678,8.678c0,4.799-3.888,8.678-8.678,8.678
		s-8.678-3.879-8.678-8.678C229.966,11.681,241.647,0,256,0s26.034,11.681,26.034,26.034S270.353,52.068,256,52.068z"/>
</g>
<path style="fill:#E2E6E7;" d="M342.78,390.508H169.22c-19.17,0-34.712-15.542-34.712-34.712V112.814
	c0-19.17,15.542-34.712,34.712-34.712h173.56c19.17,0,34.712,15.542,34.712,34.712v242.983
	C377.492,374.966,361.949,390.508,342.78,390.508z"/>
<path style="fill:#C6E2F7;" d="M160.542,338.441V130.169c0-14.379,11.655-26.034,26.034-26.034h138.847
	c14.379,0,26.034,11.655,26.034,26.034V338.44c0,14.379-11.655,26.034-26.034,26.034H186.576
	C172.197,364.475,160.542,352.82,160.542,338.441z"/>
<path style="fill:#DD352E;" d="M186.576,364.475h138.847c14.379,0,26.034-11.655,26.034-26.034V226.278
	c-6.543,1.276-11.698,5.858-17.868,9.528c-15.03,8.938-38.157,10.249-49.091,0c-14.18-13.286-32.811-12.392-49.091,0
	c-12.652,9.633-34.825,9.78-49.091,0c-8.27-5.684-16.488-10.388-25.774-10.058V338.44
	C160.542,352.82,172.197,364.475,186.576,364.475z"/>
<g>
	<path style="fill:#F27C7C;" d="M195.254,295.051c-2.222,0-4.443-0.85-6.135-2.543c-3.393-3.393-3.393-8.878,0-12.271l8.678-8.678
		c3.393-3.393,8.878-3.393,12.271,0c3.393,3.393,3.393,8.878,0,12.271l-8.678,8.678C199.697,294.2,197.476,295.051,195.254,295.051z
		"/>
	<path style="fill:#F27C7C;" d="M308.068,295.051c-2.222,0-4.443-0.85-6.135-2.543c-3.393-3.393-3.393-8.878,0-12.271l8.678-8.678
		c3.393-3.393,8.878-3.393,12.271,0s3.393,8.878,0,12.271l-8.678,8.678C312.511,294.2,310.289,295.051,308.068,295.051z"/>
	<path style="fill:#F27C7C;" d="M256,295.051c-2.222,0-4.443-0.85-6.135-2.543c-3.393-3.393-3.393-8.878,0-12.271l8.678-8.678
		c3.393-3.393,8.878-3.393,12.271,0s3.393,8.878,0,12.271l-8.678,8.678C260.443,294.2,258.222,295.051,256,295.051z"/>
	<path style="fill:#F27C7C;" d="M221.288,338.441c-2.222,0-4.443-0.85-6.135-2.543c-3.393-3.393-3.393-8.878,0-12.271l8.678-8.678
		c3.393-3.393,8.878-3.393,12.271,0c3.393,3.393,3.393,8.878,0,12.271l-8.678,8.678C225.731,337.59,223.51,338.441,221.288,338.441z
		"/>
	<path style="fill:#F27C7C;" d="M282.034,338.441c-2.222,0-4.443-0.85-6.135-2.543c-3.393-3.393-3.393-8.878,0-12.271l8.678-8.678
		c3.393-3.393,8.878-3.393,12.271,0s3.393,8.878,0,12.271l-8.678,8.678C286.477,337.59,284.255,338.441,282.034,338.441z"/>
</g>
<g>
</g>
<g>
</g>
<g>
</g>
<g>
</g>
<g>
</g>
<g>
</g>
<g>
</g>
<g>
</g>
<g>
</g>
<g>
</g>
<g>
</g>
<g>
</g>
<g>
</g>
<g>
</g>
<g>
</g>
</svg>
