<?xml version="1.0" encoding="iso-8859-1"?>
<!-- Generator: Adobe Illustrator 19.0.0, SVG Export Plug-In . SVG Version: 6.00 Build 0)  -->
<svg version="1.1" id="Capa_1" xmlns="http://www.w3.org/2000/svg" xmlns:xlink="http://www.w3.org/1999/xlink" x="0px" y="0px"
	 viewBox="0 0 512 512" style="enable-background:new 0 0 512 512;" xml:space="preserve">
<rect x="185.38" y="61.793" style="fill:#3D6F44;" width="141.24" height="52.966"/>
<path style="fill:#25AE88;" d="M353.103,70.621H158.897V17.655c0-9.754,7.9-17.655,17.655-17.655h158.897
	c9.754,0,17.655,7.901,17.655,17.655v52.966H353.103z"/>
<path style="fill:#61B872;" d="M361.931,512H150.069c-14.627,0-26.483-11.855-26.483-26.483V132.414
	c0-14.627,11.855-26.483,26.483-26.483h211.862c14.627,0,26.483,11.855,26.483,26.483v353.103
	C388.414,500.145,376.558,512,361.931,512z"/>
<g>
	<path style="fill:#FFFFFF;" d="M194.207,353.103c-4.873,0-8.828-3.946-8.828-8.828V203.034c0-4.882,3.955-8.828,8.828-8.828
		s8.828,3.946,8.828,8.828v141.241C203.034,349.158,199.08,353.103,194.207,353.103z"/>
	<path style="fill:#FFFFFF;" d="M238.345,282.483h-44.138c-4.873,0-8.828-3.946-8.828-8.828v-70.621
		c0-4.882,3.955-8.828,8.828-8.828h44.138c24.338,0,44.138,19.8,44.138,44.138S262.682,282.483,238.345,282.483z M203.034,264.828
		h35.31c14.601,0,26.483-11.882,26.483-26.483s-11.882-26.483-26.483-26.483h-35.31V264.828z"/>
	<path style="fill:#FFFFFF;" d="M317.793,361.931c-2.26,0-4.52-0.865-6.241-2.586l-79.448-79.448c-3.452-3.452-3.452-9.031,0-12.482
		c3.443-3.452,9.039-3.452,12.482,0l79.448,79.448c3.452,3.452,3.452,9.031,0,12.482
		C322.313,361.066,320.053,361.931,317.793,361.931z"/>
	<path style="fill:#FFFFFF;" d="M238.345,361.931c-2.26,0-4.52-0.865-6.241-2.586c-3.452-3.452-3.452-9.031,0-12.482l79.448-79.448
		c3.443-3.452,9.039-3.452,12.482,0c3.452,3.452,3.452,9.031,0,12.482l-79.448,79.448
		C242.865,361.066,240.605,361.931,238.345,361.931z"/>
</g>
<path style="fill:#3D6F44;" d="M388.414,485.517v-26.483H123.586v26.483c0,14.627,11.855,26.483,26.483,26.483h211.862
	C376.558,512,388.414,500.145,388.414,485.517z"/>
<g>
	<path style="fill:#45CEA3;" d="M282.483,44.138h-44.138c-4.873,0-8.828-3.946-8.828-8.828s3.955-8.828,8.828-8.828h44.138
		c4.873,0,8.828,3.946,8.828,8.828S287.356,44.138,282.483,44.138z"/>
	<path style="fill:#45CEA3;" d="M353.103,26.483h-35.31c-4.873,0-8.828,3.946-8.828,8.828s3.955,8.828,8.828,8.828h35.31V26.483z"/>
	<path style="fill:#45CEA3;" d="M158.897,44.138h44.138c4.873,0,8.828-3.946,8.828-8.828s-3.955-8.828-8.828-8.828h-44.138V44.138z"
		/>
</g>
<g>
</g>
<g>
</g>
<g>
</g>
<g>
</g>
<g>
</g>
<g>
</g>
<g>
</g>
<g>
</g>
<g>
</g>
<g>
</g>
<g>
</g>
<g>
</g>
<g>
</g>
<g>
</g>
<g>
</g>
</svg>
