<?xml version="1.0" encoding="iso-8859-1"?>
<!-- Generator: Adobe Illustrator 19.0.0, SVG Export Plug-In . SVG Version: 6.00 Build 0)  -->
<svg version="1.1" id="Capa_1" xmlns="http://www.w3.org/2000/svg" xmlns:xlink="http://www.w3.org/1999/xlink" x="0px" y="0px"
	 viewBox="0 0 512 512" style="enable-background:new 0 0 512 512;" xml:space="preserve">
<g>
	<path style="fill:#C6E2F7;" d="M375.467,247.467v-59.204c0-26.709-14.31-51.371-37.504-64.623l-0.017-0.009
		c-13.73-7.859-22.212-31.002-22.212-46.831H196.267c0,15.829-8.482,38.98-22.229,46.831
		c-23.194,13.261-37.504,37.922-37.504,64.631v59.204h238.933V247.467z"/>
	<path style="fill:#C6E2F7;" d="M136.533,401.067v76.8c0,14.14,11.46,25.6,25.6,25.6h187.733c14.14,0,25.6-11.46,25.6-25.6v-76.8
		L136.533,401.067L136.533,401.067z"/>
</g>
<path style="fill:#7383BF;" d="M341.333,85.333H170.667V25.6c0-9.429,7.637-17.067,17.067-17.067h136.533
	c9.429,0,17.067,7.637,17.067,17.067v59.733H341.333z"/>
<rect x="128" y="238.93" style="fill:#E7ECED;" width="256" height="170.67"/>
<g>
	<path style="fill:#4D007E;" d="M341.333,93.867H170.667c-4.71,0-8.533-3.814-8.533-8.533V25.6c0-14.114,11.486-25.6,25.6-25.6
		h136.533c14.114,0,25.6,11.486,25.6,25.6v59.733C349.867,90.052,346.044,93.867,341.333,93.867z M179.2,76.8h153.6V25.6
		c0-4.71-3.831-8.533-8.533-8.533H187.733c-4.702,0-8.533,3.823-8.533,8.533V76.8z"/>
	<path style="fill:#4D007E;" d="M375.467,247.467H136.533c-4.71,0-8.533-3.814-8.533-8.533v-50.671
		c0-29.705,16.017-57.31,41.805-72.038c11.059-6.315,17.929-18.15,17.929-30.891c0-4.719,3.823-8.533,8.533-8.533h119.467
		c4.71,0,8.533,3.814,8.533,8.533c0,12.732,6.869,24.567,17.92,30.882C367.983,130.961,384,158.558,384,188.254v50.679
		C384,243.652,380.177,247.467,375.467,247.467z M145.067,230.4h221.867v-42.138c0-23.595-12.723-45.517-33.203-57.216
		c-13.867-7.927-23.279-21.692-25.83-37.171H204.1c-2.551,15.479-11.972,29.261-25.83,37.171
		c-20.48,11.699-33.203,33.63-33.203,57.216V230.4z"/>
	<path style="fill:#4D007E;" d="M349.867,512H162.133C143.309,512,128,496.691,128,477.867V409.6c0-4.719,3.823-8.533,8.533-8.533
		h238.933c4.71,0,8.533,3.814,8.533,8.533v68.267C384,496.691,368.691,512,349.867,512z M145.067,418.133v59.733
		c0,9.412,7.654,17.067,17.067,17.067h187.733c9.412,0,17.067-7.654,17.067-17.067v-59.733H145.067z"/>
	<path style="fill:#4D007E;" d="M384,418.133H128c-4.71,0-8.533-3.814-8.533-8.533V238.933c0-4.719,3.823-8.533,8.533-8.533h256
		c4.71,0,8.533,3.814,8.533,8.533V409.6C392.533,414.319,388.71,418.133,384,418.133z M136.533,401.067h238.933v-153.6H136.533
		V401.067z"/>
	<path style="fill:#4D007E;" d="M256,384c-4.71,0-8.533-3.814-8.533-8.533v-102.4c0-4.719,3.823-8.533,8.533-8.533
		c4.71,0,8.533,3.814,8.533,8.533v102.4C264.533,380.186,260.71,384,256,384z"/>
	<path style="fill:#4D007E;" d="M307.2,332.8H204.8c-4.71,0-8.533-3.814-8.533-8.533s3.823-8.533,8.533-8.533h102.4
		c4.71,0,8.533,3.814,8.533,8.533S311.91,332.8,307.2,332.8z"/>
	<path style="fill:#4D007E;" d="M273.067,59.733h-102.4c-4.71,0-8.533-3.814-8.533-8.533s3.823-8.533,8.533-8.533h102.4
		c4.71,0,8.533,3.814,8.533,8.533S277.777,59.733,273.067,59.733z"/>
	<path style="fill:#4D007E;" d="M341.333,59.733H307.2c-4.71,0-8.533-3.814-8.533-8.533s3.823-8.533,8.533-8.533h34.133
		c4.71,0,8.533,3.814,8.533,8.533S346.044,59.733,341.333,59.733z"/>
</g>
<g>
</g>
<g>
</g>
<g>
</g>
<g>
</g>
<g>
</g>
<g>
</g>
<g>
</g>
<g>
</g>
<g>
</g>
<g>
</g>
<g>
</g>
<g>
</g>
<g>
</g>
<g>
</g>
<g>
</g>
</svg>
