<?xml version="1.0" encoding="iso-8859-1"?>
<!-- Generator: Adobe Illustrator 19.0.0, SVG Export Plug-In . SVG Version: 6.00 Build 0)  -->
<svg version="1.1" id="Capa_1" xmlns="http://www.w3.org/2000/svg" xmlns:xlink="http://www.w3.org/1999/xlink" x="0px" y="0px"
	 viewBox="0 0 512 512" style="enable-background:new 0 0 512 512;" xml:space="preserve">
<rect x="187.73" y="68.27" style="fill:#3D6F44;" width="136.53" height="51.2"/>
<path style="fill:#25AE88;" d="M349.867,76.8H162.133V25.6c0-9.429,7.637-17.067,17.067-17.067h153.6
	c9.429,0,17.067,7.637,17.067,17.067L349.867,76.8L349.867,76.8z"/>
<path style="fill:#61B872;" d="M358.4,503.467H153.6c-14.14,0-25.6-11.46-25.6-25.6V136.533c0-14.14,11.46-25.6,25.6-25.6h204.8
	c14.14,0,25.6,11.46,25.6,25.6v341.333C384,492.006,372.54,503.467,358.4,503.467z"/>
<path style="fill:#3D6F44;" d="M384,477.867v-25.6H128v25.6c0,14.14,11.46,25.6,25.6,25.6h204.8
	C372.54,503.467,384,492.006,384,477.867z"/>
<g>
	<path style="fill:#4D007E;" d="M349.867,85.333H162.133c-4.71,0-8.533-3.814-8.533-8.533V25.6c0-14.114,11.486-25.6,25.6-25.6
		h153.6c14.114,0,25.6,11.486,25.6,25.6v51.2C358.4,81.519,354.577,85.333,349.867,85.333z M170.667,68.267h170.667V25.6
		c0-4.71-3.823-8.533-8.533-8.533H179.2c-4.71,0-8.533,3.823-8.533,8.533L170.667,68.267L170.667,68.267z"/>
	<path style="fill:#4D007E;" d="M324.267,119.467H187.733c-4.71,0-8.533-3.814-8.533-8.533V76.8c0-4.719,3.823-8.533,8.533-8.533
		h136.533c4.71,0,8.533,3.814,8.533,8.533v34.133C332.8,115.652,328.977,119.467,324.267,119.467z M196.267,102.4h119.467V85.333
		H196.267V102.4z"/>
	<path style="fill:#4D007E;" d="M358.4,512H153.6c-18.825,0-34.133-15.309-34.133-34.133V136.533
		c0-18.825,15.309-34.133,34.133-34.133h204.8c18.825,0,34.133,15.309,34.133,34.133v341.333C392.533,496.691,377.225,512,358.4,512
		z M153.6,119.467c-9.412,0-17.067,7.654-17.067,17.067v341.333c0,9.412,7.654,17.067,17.067,17.067h204.8
		c9.412,0,17.067-7.654,17.067-17.067V136.533c0-9.412-7.654-17.067-17.067-17.067L153.6,119.467L153.6,119.467z"/>
	<path style="fill:#4D007E;" d="M196.267,349.867c-4.71,0-8.533-3.814-8.533-8.533V204.8c0-4.719,3.823-8.533,8.533-8.533
		s8.533,3.814,8.533,8.533v136.533C204.8,346.052,200.977,349.867,196.267,349.867z"/>
	<path style="fill:#4D007E;" d="M238.933,281.6h-42.667c-4.71,0-8.533-3.814-8.533-8.533V204.8c0-4.719,3.823-8.533,8.533-8.533
		h42.667c23.526,0,42.667,19.14,42.667,42.667S262.46,281.6,238.933,281.6z M204.8,264.533h34.133c14.114,0,25.6-11.486,25.6-25.6
		c0-14.114-11.486-25.6-25.6-25.6H204.8V264.533z"/>
	<path style="fill:#4D007E;" d="M315.733,358.4c-2.185,0-4.369-0.836-6.033-2.5l-76.8-76.8c-3.337-3.337-3.337-8.73,0-12.066
		c3.328-3.337,8.738-3.337,12.066,0l76.8,76.8c3.337,3.337,3.337,8.73,0,12.066C320.102,357.564,317.918,358.4,315.733,358.4z"/>
	<path style="fill:#4D007E;" d="M238.933,358.4c-2.185,0-4.369-0.836-6.033-2.5c-3.337-3.337-3.337-8.73,0-12.066l76.8-76.8
		c3.328-3.337,8.738-3.337,12.066,0c3.337,3.337,3.337,8.73,0,12.066l-76.8,76.8C243.302,357.564,241.118,358.4,238.933,358.4z"/>
	<path style="fill:#4D007E;" d="M358.4,512H153.6c-18.825,0-34.133-15.309-34.133-34.133v-25.6c0-4.719,3.823-8.533,8.533-8.533h256
		c4.71,0,8.533,3.814,8.533,8.533v25.6C392.533,496.691,377.225,512,358.4,512z M136.533,460.8v17.067
		c0,9.412,7.654,17.067,17.067,17.067h204.8c9.412,0,17.067-7.654,17.067-17.067V460.8H136.533z"/>
	<path style="fill:#4D007E;" d="M204.8,51.2h-42.667c-4.71,0-8.533-3.814-8.533-8.533s3.823-8.533,8.533-8.533H204.8
		c4.71,0,8.533,3.814,8.533,8.533S209.51,51.2,204.8,51.2z"/>
	<path style="fill:#4D007E;" d="M281.6,51.2h-42.667c-4.71,0-8.533-3.814-8.533-8.533s3.823-8.533,8.533-8.533H281.6
		c4.71,0,8.533,3.814,8.533,8.533S286.31,51.2,281.6,51.2z"/>
	<path style="fill:#4D007E;" d="M349.867,51.2h-34.133c-4.71,0-8.533-3.814-8.533-8.533s3.823-8.533,8.533-8.533h34.133
		c4.71,0,8.533,3.814,8.533,8.533S354.577,51.2,349.867,51.2z"/>
</g>
<g>
</g>
<g>
</g>
<g>
</g>
<g>
</g>
<g>
</g>
<g>
</g>
<g>
</g>
<g>
</g>
<g>
</g>
<g>
</g>
<g>
</g>
<g>
</g>
<g>
</g>
<g>
</g>
<g>
</g>
</svg>
