<?xml version="1.0" encoding="iso-8859-1"?>
<!-- Generator: Adobe Illustrator 19.0.0, SVG Export Plug-In . SVG Version: 6.00 Build 0)  -->
<svg version="1.1" id="Capa_1" xmlns="http://www.w3.org/2000/svg" xmlns:xlink="http://www.w3.org/1999/xlink" x="0px" y="0px"
	 viewBox="0 0 512 512" style="enable-background:new 0 0 512 512;" xml:space="preserve">
<path style="fill:#E2E2E2;" d="M441.841,389.164l-58.128-89.991c-32.574,32.575-18.625,18.625-51.196,51.196l88.989,59.129
	c3.677,2.381,6.613,0.072,7.447-0.715c7.467-7.467,4.706-4.707,12.175-12.174C441.914,395.775,444.223,392.84,441.841,389.164z"/>
<path style="fill:#D1D3D3;" d="M346.506,336.38l-13.99,13.99l88.989,59.129c3.677,2.381,6.613,0.072,7.447-0.715
	c7.311-7.311,4.643-4.644,11.963-11.962C437.403,397.647,443.305,400.699,346.506,336.38z"/>
<path style="fill:#C6C6C6;" d="M331.412,354.474l55.405-55.406c5.56-5.56,5.56-14.573-0.001-20.132l-15.937-15.938l-75.537,75.538
	l15.937,15.938C316.839,360.034,325.852,360.034,331.412,354.474z"/>
<path style="fill:#B1B2B2;" d="M325.758,340.402l-16.141-16.141l-14.275,14.275l15.937,15.938c5.56,5.56,14.573,5.56,20.133,0.001
	l10.673-10.674C336.622,345.945,330.173,344.817,325.758,340.402z"/>
<rect x="204.941" y="222.334" transform="matrix(0.7071 -0.7071 0.7071 0.7071 -90.9473 265.3144)" style="fill:#C6C6C6;" width="139.696" height="40.212"/>
<rect x="222.579" y="264.937" transform="matrix(0.7071 -0.7071 0.7071 0.7071 -133.547 247.6744)" style="fill:#B1B2B2;" width="19.234" height="40.212"/>
<path style="fill:#7EC16B;" d="M195.155,298.447l135.636-135.634c4.608-4.61,4.608-12.084,0-16.692L195.629,10.959
	c-4.609-4.609-12.083-4.609-16.691,0L43.303,146.595c-4.607,4.607-4.609,12.083,0,16.691l135.161,135.161
	C183.074,303.056,190.548,303.055,195.155,298.447z"/>
<path style="fill:#63A84C;" d="M193.876,285.192L56.558,147.874c-3.089-3.089-4.126-7.443-3.139-11.395l-10.117,10.117
	c-4.607,4.607-4.609,12.083,0,16.691l135.161,135.161c4.609,4.609,12.084,4.608,16.691,0l10.115-10.115
	C201.319,289.318,196.966,288.281,193.876,285.192z"/>
<rect x="79.347" y="104.227" transform="matrix(0.7071 -0.7071 0.7071 0.7071 -54.6015 177.579)" style="fill:#B2EDA6;" width="215.419" height="100.944"/>
<rect x="107.91" y="173.228" transform="matrix(0.7071 -0.7071 0.7071 0.7071 -123.6052 148.991)" style="fill:#9FDD90;" width="20.271" height="100.944"/>
<path style="fill:#546570;" d="M234.681,326.412c-5.632-5.632-5.631-14.765,0-20.396L338.36,202.337
	c5.631-5.631,14.765-5.631,20.396,0l27.194,27.194c5.631,5.632,5.631,14.765,0,20.396L282.272,353.606
	c-5.631,5.632-14.764,5.632-20.396,0L234.681,326.412z"/>
<path style="fill:#6EBEFF;" d="M465.941,457.722c-22.765-29.648-21.34-28.415-23.051-28.415c-1.706,0-0.264-1.261-23.051,28.415
	c-8.533,11.113-7.561,26.212,0.222,35.705c11.176,14.153,33.206,15.405,45.738-0.099
	C473.959,482.883,474.017,468.241,465.941,457.722z"/>
<path style="fill:#49A9EA;" d="M448.908,457.722l8.516-11.092c-13.69-17.829-12.888-17.324-14.535-17.324
	c-1.706,0-0.264-1.261-23.051,28.415c-8.533,11.113-7.561,26.212,0.222,35.705c8.937,11.319,24.832,14.422,37.363,7.167
	C442.105,491.718,438.289,471.55,448.908,457.722z"/>
<path style="fill:#47545E;" d="M278.035,262.663l-43.354,43.353c-5.631,5.631-5.632,14.764,0,20.396l27.194,27.194
	c5.632,5.632,14.765,5.632,20.396,0l22.867-22.866C285.763,314.072,275.331,288.968,278.035,262.663z"/>
<path d="M357.624,250.066c6.624,0,10.043-8.065,5.304-12.804l-13.173-13.173c-2.93-2.929-7.678-2.929-10.608,0
	c-2.929,2.929-2.929,7.678,0,10.607C353.236,248.785,353.61,250.066,357.624,250.066z"/>
<path d="M267.04,306.807c-2.929-2.928-7.678-2.929-10.607,0c-2.93,2.929-2.93,7.678-0.001,10.608l13.172,13.173
	c2.931,2.93,7.679,2.927,10.607,0c2.93-2.929,2.93-7.678,0.001-10.608L267.04,306.807z"/>
<path d="M290.285,309.906c1.464,1.465,3.384,2.197,5.303,2.197s3.839-0.732,5.304-2.197c2.929-2.929,2.929-7.678-0.001-10.607
	l-13.173-13.172c-2.928-2.93-7.677-2.929-10.607,0c-2.929,2.929-2.929,7.678,0.001,10.607L290.285,309.906z"/>
<path d="M316.265,291.424c1.919,0,3.839-0.732,5.304-2.197c2.929-2.929,2.929-7.678-0.001-10.608l-13.173-13.172
	c-2.928-2.929-7.677-2.928-10.607,0c-2.929,2.929-2.929,7.678,0.001,10.608C311.866,290.131,312.246,291.424,316.265,291.424z"/>
<path d="M336.945,270.745c6.623,0,10.044-8.065,5.303-12.805l-13.174-13.172c-2.93-2.929-7.677-2.929-10.607,0.001
	c-2.929,2.929-2.929,7.678,0.001,10.607C332.546,269.453,332.926,270.745,336.945,270.745z"/>
<path d="M424.842,418.059c3.63-0.001,6.99-1.566,9.417-3.968c0.107-0.107,12.228-12.225,12.332-12.336
	c4.443-4.719,5.05-11.262,1.542-16.671l-23.856-36.745c-2.256-3.476-6.9-4.461-10.375-2.207c-3.475,2.256-4.462,6.9-2.206,10.376
	l23.199,35.734l-10.315,10.314l-79.208-51.428c32.328-32.329,24.778-24.779,38.096-38.096l13.258,20.419
	c2.256,3.476,6.9,4.461,10.375,2.207c3.475-2.256,4.462-6.9,2.206-10.376l-15.135-23.311c6.413-8.581,5.654-20.633-2.05-28.334
	l-9.633-9.633l8.768-8.768c8.545-8.546,8.545-22.455,0-31.003l-27.194-27.194c-7.57-7.57-19.34-8.421-27.871-2.581l-13.215-13.215
	l13.123-13.123c7.523-7.527,7.523-19.773-0.001-27.297C320.582,125.307,217.994,22.719,200.934,5.659
	c-7.544-7.544-19.753-7.545-27.298,0L38,141.295c-3.645,3.645-5.652,8.491-5.653,13.648c0,5.157,2.007,10.006,5.653,13.651
	l31.89,31.89l71.382,71.382l31.89,31.89c3.646,3.646,8.493,5.654,13.651,5.653c5.156,0,10.003-2.008,13.648-5.653l13.122-13.122
	l13.21,13.21c-5.811,8.456-5.076,20.214,2.586,27.877l0,0l27.194,27.194c4.141,4.141,9.645,6.42,15.502,6.42
	c5.856,0,11.362-2.28,15.502-6.42l8.766-8.766l9.633,9.633c4.238,4.238,9.805,6.356,15.371,6.356c4.569,0,9.127-1.452,12.962-4.308
	C424.442,420.351,419.428,418.059,424.842,418.059z M48.608,151.901C193.785,6.724,184.655,15.006,187.285,15.006
	c1.149,0,2.229,0.447,3.042,1.26l26.585,26.585l-29.245,29.245c-2.929,2.929-2.929,7.678,0,10.607c2.929,2.929,7.678,2.929,10.607,0
	l29.245-29.245l60.775,60.775l-141.718,141.72l-60.775-60.775l95.39-95.391c2.929-2.929,2.929-7.678,0-10.607
	c-2.929-2.929-7.678-2.929-10.607,0l-95.39,95.391l-26.586-26.586C46.927,156.305,46.927,153.582,48.608,151.901z M189.853,293.147
	c-1.681,1.681-4.403,1.68-6.083,0l-26.586-26.586l141.719-141.719l26.586,26.586c1.678,1.677,1.677,4.407,0,6.084
	c-4.849,4.849-113.406,113.406-117.215,117.215C204.871,278.129,191.534,291.465,189.853,293.147z M312.367,191.848l12.94,12.94
	l-88.177,88.177l-12.941-12.941L312.367,191.848z M272.075,350.333c-3.822,0-2.529,0.337-32.089-29.221l0,0
	c-2.705-2.704-2.706-7.083,0-9.79l99.005-99.005l2.227-2.227l0,0l2.447-2.447c1.307-1.307,3.044-2.026,4.894-2.026
	s3.587,0.72,4.894,2.026l27.194,27.194c2.698,2.699,2.698,7.091,0,9.79c-4.226,4.226-85.17,85.169-89.609,89.609
	c-0.002,0.002-0.003,0.004-0.005,0.006C275.876,349.4,275.785,350.333,272.075,350.333z M316.584,349.173l-9.633-9.633l64.93-64.93
	c10.165,10.166,11.608,10.807,11.608,14.396c0,1.799-0.701,3.49-1.974,4.762c-51.507,51.508-21.939,21.939-55.404,55.406
	C323.483,351.8,319.209,351.799,316.584,349.173z"/>
<path d="M471.89,453.157l-23.051-30.022c-2.999-3.907-8.898-3.906-11.897,0l-23.051,30.021
	c-16.745,21.804-4.262,53.232,22.171,58.201C468.601,517.342,492.694,480.25,471.89,453.157z M434.628,495.358
	c-13.27-5.464-17.383-21.937-8.839-33.065l17.103-22.273l17.103,22.272C473.318,479.649,454.995,503.896,434.628,495.358z"/>
<path d="M182.827,198.713c4.271,0,2.558,0.548,43.81-40.704c2.929-2.929,2.929-7.678,0-10.607c-2.929-2.929-7.678-2.929-10.607,0
	l-38.508,38.507C172.782,190.649,176.204,198.713,182.827,198.713z"/>
<g>
</g>
<g>
</g>
<g>
</g>
<g>
</g>
<g>
</g>
<g>
</g>
<g>
</g>
<g>
</g>
<g>
</g>
<g>
</g>
<g>
</g>
<g>
</g>
<g>
</g>
<g>
</g>
<g>
</g>
</svg>
