<svg height="479pt" viewBox="-39 0 479 479.14229" width="479pt" xmlns="http://www.w3.org/2000/svg"><path d="m347.214844 189.046875 45.257812-45.257813-135.769531-135.765624-113.136719 113.136718 67.878906-67.882812zm0 0" fill="#9bc9ff"/><path d="m184.382812 272.679688c5.191407-5.296876 13.375-6.253907 19.648438-2.296876 23.800781 15.535157 53.34375 8.496094 75.304688-13.457031l-135.769532-135.765625c-21.953125 21.980469-28.992187 51.503906-13.457031 75.300782 3.957031 6.273437 3 14.457031-2.292969 19.648437l-6.875 6.871094c-1.929687 1.894531-3.585937 4.050781-4.917968 6.402343l55.097656 55.101563c2.347656-1.335937 4.503906-2.996094 6.398437-4.925781zm0 0" fill="#9bc9ff"/><path d="m62.390625 360.839844 70.992187-46.21875-47.511718-47.480469-46.214844 70.960937c-2.578125 6.496094-1.046875 13.902344 3.894531 18.84375 4.941407 4.9375 12.34375 6.46875 18.839844 3.894532zm0 0" fill="#9bc9ff"/><path d="m8.070312 447.140625c0 13.257813 10.746094 24 24 24 13.253907 0 24-10.742187 24-24 0-13.253906-24-56-24-56s-24 42.746094-24 56zm0 0" fill="#9bc9ff"/><g fill="#1e81ce"><path d="m154.886719 321.496094c-3.234375-.003906-6.152344-1.953125-7.390625-4.941406-1.234375-2.988282-.550782-6.429688 1.734375-8.714844l11.3125-11.3125c3.140625-3.03125 8.128906-2.988282 11.214843.097656 3.085938 3.085938 3.128907 8.074219.097657 11.214844l-11.3125 11.300781c-1.5 1.503906-3.53125 2.351563-5.65625 2.355469zm0 0"/><path d="m400.472656 143.789062c-.003906-2.121093-.84375-4.15625-2.34375-5.65625l-135.769531-135.789062c-3.125-3.125-8.1875-3.125-11.3125 0l-113.136719 113.160156c-25.800781 25.804688-31.496094 59.300782-14.496094 85.335938 1.886719 3.097656 1.359376 7.089844-1.261718 9.597656l-6.863282 6.863281-5.664062-5.65625c-9.375-9.367187-24.566406-9.367187-33.9375 0l-11.3125 11.335938c-9.375 9.375-9.375 24.574219 0 33.945312l11.25 11.257813-42.675781 65.550781c-.289063.441406-.535157.914063-.726563 1.40625-3.089844 7.84375-2.121094 16.703125 2.589844 23.695313 4.710938 6.988281 12.558594 11.210937 20.988281 11.289062 3.269531-.007812 6.507813-.632812 9.542969-1.847656.492188-.195313.964844-.441406 1.40625-.734375l65.601562-42.671875 11.246094 11.246094c9.375 9.375 24.574219 9.375 33.945313 0l11.3125-11.3125c9.367187-9.371094 9.367187-24.5625 0-33.933594l-5.664063-5.664063 6.871094-6.871093c2.511719-2.617188 6.5-3.140626 9.601562-1.257813 26.03125 16.992187 59.535157 11.3125 85.335938-14.496094l113.128906-113.136719c1.5-1.5 2.339844-3.535156 2.34375-5.65625zm-324.785156 90.554688 11.3125-11.320312c3.125-3.125 8.1875-3.125 11.3125 0l39.597656 39.597656 16.960938 16.96875c-3.121094-3.117188-8.179688-3.117188-11.304688 0l-11.320312 11.320312c-3.117188 3.125-3.117188 8.179688 0 11.304688l-33.917969-33.921875c3.121094 3.117187 8.179687 3.117187 11.304687 0l11.300782-11.3125c3.035156-3.136719 2.988281-8.125-.097656-11.210938-3.085938-3.085937-8.074219-3.132812-11.210938-.097656l-11.3125 11.253906c-3.117188 3.125-3.117188 8.179688 0 11.304688l-22.617188-22.617188c-3.097656-3.117187-3.101562-8.148437-.007812-11.269531zm-16.894531 119.292969c-3.382813 1.058593-7.074219.152343-9.582031-2.355469-2.503907-2.507812-3.414063-6.195312-2.355469-9.578125l40.335937-61.960937 33.601563 33.601562zm118.71875-40.140625-11.3125 11.308594c-1.5 1.503906-3.535157 2.347656-5.660157 2.347656s-4.160156-.84375-5.660156-2.347656l-22.617187-22.613282c3.125 3.117188 8.183593 3.117188 11.304687 0l11.3125-11.320312c3.117188-3.125 3.117188-8.183594 0-11.304688l22.632813 22.617188c3.121093 3.121094 3.121093 8.1875 0 11.3125zm33.933593-248.90625 124.457032 124.457031-56.566406 56.566406-124.457032-124.453125zm-3.046874 199.089844c-9.449219-5.992188-21.792969-4.601563-29.671876 3.34375l-6.871093 6.871093-45.257813-45.25 6.875-6.878906c7.949219-7.875 9.34375-20.222656 3.34375-29.671875-11.464844-17.597656-8.464844-40.136719 7.117188-59.253906l123.722656 123.71875c-19.121094 15.574218-41.6875 18.582031-59.257812 7.121094zm138.816406-85.953126-124.457032-124.449218 33.945313-33.941406 124.457031 124.453124zm0 0"/><path d="m126.597656 262.582031-11.328125 11.3125c-2.078125 2.007813-2.910156 4.984375-2.179687 7.78125.730468 2.796875 2.917968 4.980469 5.714844 5.710938 2.796874.734375 5.769531-.101563 7.777343-2.179688l11.3125-11.3125c3.03125-3.140625 2.988281-8.128906-.097656-11.214843-3.085937-3.085938-8.074219-3.128907-11.214844-.097657zm0 0"/><path d="m87 253.613281c2.121094 0 4.15625-.84375 5.65625-2.34375l11.3125-11.328125c2.078125-2.007812 2.910156-4.980468 2.179688-7.777344-.730469-2.800781-2.917969-4.984374-5.714844-5.714843-2.796875-.734375-5.769532.101562-7.777344 2.179687l-11.3125 11.3125c-2.289062 2.289063-2.972656 5.730469-1.734375 8.71875 1.238281 2.988282 4.15625 4.9375 7.390625 4.9375zm0 0"/><path d="m32.070312 479.140625c-17.671874 0-31.9999995-14.324219-31.9999995-32 0-14.605469 20.8398435-52.46875 25.0234375-59.917969 1.539062-2.359375 4.164062-3.78125 6.976562-3.78125 2.816407 0 5.441407 1.421875 6.976563 3.78125 4.222656 7.449219 25.023437 45.3125 25.023437 59.917969 0 17.675781-14.324218 32-32 32zm0-71.101563c-7.121093 12.226563-12.507812 25.390626-16 39.101563 0 8.839844 7.164063 16 16 16 8.835938 0 16-7.160156 16-16-3.492187-13.710937-8.875-26.875-16-39.101563zm0 0"/></g></svg>