<svg height="512pt" viewBox="-56 0 512 512.00064" width="512pt" xmlns="http://www.w3.org/2000/svg"><path d="m265.800781 239.820312-115.5 115.800782c-2.402343 2.097656-5.097656 3.597656-8.101562 4.199218l-46.5 8.101563-18.300781 18c-8.699219 8.699219-20.097657 13.199219-31.800782 13.199219-11.398437 0-23.097656-4.5-31.796875-13.199219-17.402343-17.699219-17.402343-46.199219 0-63.601563l17.996094-18.300781 8.101563-46.5c.601562-3 2.101562-5.699219 4.199218-8.101562l9.601563-9.597657 61.800781-28.5c2.097656-.898437 4.199219-1.5 6.296875-1.5h102.300781c3.601563 0 6.902344 1.199219 9.601563 3.300782zm0 0" fill="#64e1dc"/><path d="m265.800781 239.820312-115.5 115.800782c-2.402343 2.097656-5.097656 3.597656-8.101562 4.199218l-46.5 8.101563-18.300781 18c-8.699219 8.699219-20.097657 13.199219-31.800782 13.199219-11.398437 0-23.097656-4.5-31.796875-13.199219l176.097657-176.101563h34.199218c3.601563 0 6.902344 1.199219 9.601563 3.300782zm0 0" fill="#00c8c8"/><path d="m301.800781 182.820312c6 5.699219 6 15 .296875 20.699219 0 0-33.296875 33.300781-36.296875 36.300781h-212.101562c8.398437-8.402343 138.902343-138.898437 142.199219-141.898437 5.703124-6 15-6 20.703124-.300781 25.546876 25.546875 46.699219 46.699218 85.199219 85.199218zm0 0" fill="#e0f4ff"/><path d="m301.800781 182.820312c6 5.699219 6 15 .296875 20.699219 0 0-33.296875 33.300781-36.296875 36.300781h-105.902343l99.601562-99.300781zm0 0" fill="#bbdcff"/><path d="m354.898438 151.019531c2.703124-3 18.300781-18.601562 20.703124-21 29.097657-28.800781 31.5-73.800781 7.199219-103.5-1.5-1.5-3-3-4.5-4.5l-.300781-.300781c-27.898438-27.898438-76.199219-30-106.199219 0-3 3-20.699219 20.699219-23.097656 23.101562-1.800781-1.800781-8.101563-8.101562-10.503906-10.5-17.398438-17.699218-46.199219-17.699218-63.597657 0-17.699218 17.699219-17.402343 45.898438 0 63.601563 9.296876 9.300781 36.601563 36.597656 63.597657 63.601563l63.601562 63.597656c17.699219 17.699218 46.199219 17.402344 63.597657 0 17.703124-17.402344 17.703124-46.199219 0-63.597656-1.800782-1.800782-8.097657-8.101563-10.5-10.503907zm0 0" fill="#ffb64c"/><path d="m365.398438 161.523438c17.703124 17.398437 17.703124 46.195312 0 63.597656-17.398438 17.402344-45.898438 17.699218-63.597657 0l-63.601562-63.597656 140.101562-139.503907c1.5 1.5 3 3.003907 4.5 4.503907 24.300781 29.699218 21.898438 74.699218-7.199219 103.5-2.402343 2.398437-18 17.996093-20.703124 20.996093 2.402343 2.402344 8.699218 8.703125 10.5 10.503907zm0 0" fill="#ff9100"/><path d="m79.199219 438.203125-22.199219-30.300781c-2.402344-3.601563-6.898438-5.699219-11.398438-6-4.800781 0-9.902343 1.800781-12.902343 6l-21.300781 29.097656c-7.5 8.402344-11.398438 18.902344-11.398438 30 0 24.902344 20.101562 45 45 45 24.601562 0 45-20.097656 45-45 0-11.097656-4.199219-21.597656-10.800781-28.796875zm0 0" fill="#00c8c8"/></svg>