<?xml version="1.0" encoding="iso-8859-1"?>
<!-- Generator: Adobe Illustrator 19.0.0, SVG Export Plug-In . SVG Version: 6.00 Build 0)  -->
<svg version="1.1" id="Capa_1" xmlns="http://www.w3.org/2000/svg" xmlns:xlink="http://www.w3.org/1999/xlink" x="0px" y="0px"
	 viewBox="0 0 512.001 512.001" style="enable-background:new 0 0 512.001 512.001;" xml:space="preserve">
<path style="fill:#E1EFFB;" d="M232.848,166.777v-46.47H127.379v46.47l-38.985,23.15c-8.91,5.291-14.371,14.886-14.371,25.249
	v262.878c0,14.603,11.838,26.441,26.441,26.441h159.3c14.603,0,26.441-11.838,26.441-26.441V215.176
	c0-10.362-5.462-19.958-14.371-25.249L232.848,166.777z"/>
<path style="fill:#CADDEA;" d="M271.833,189.927l-38.985-23.15v-46.47h-49.536v46.47l46.152,27.406
	c4.466,2.652,7.204,7.462,7.204,12.656v297.655h23.095c14.603,0,26.441-11.838,26.441-26.441V215.176
	C286.204,204.813,280.743,195.218,271.833,189.927z"/>
<path style="fill:#65DB57;" d="M232.848,166.777H127.379l-38.985,23.15c-8.91,5.291-14.371,14.886-14.371,25.249v262.878
	c0,14.603,11.838,26.441,26.441,26.441h159.3c14.603,0,26.441-11.838,26.441-26.441V215.176c0-10.362-5.462-19.958-14.371-25.249
	L232.848,166.777z"/>
<path style="fill:#01C61B;" d="M286.204,215.176c0-1.943-0.192-3.859-0.563-5.725c-0.741-3.731-2.198-7.262-4.263-10.404
	c-2.409-3.666-5.648-6.805-9.546-9.12l-14.525-8.625l-24.46-14.525l0,0h-49.536l0,0l46.152,27.406
	c4.466,2.652,7.204,7.462,7.204,12.656v297.655h23.095c3.651,0,7.129-0.74,10.292-2.078c2.768-1.171,5.295-2.799,7.486-4.791
	c0.626-0.569,1.225-1.168,1.794-1.794c4.268-4.696,6.869-10.933,6.869-17.778V215.176H286.204z"/>
<rect x="74.02" y="228.07" style="fill:#E1EFFB;" width="212.18" height="222.33"/>
<g>
	<rect x="236.67" y="228.07" style="fill:#CADDEA;" width="49.54" height="222.33"/>
	<path style="fill:#CADDEA;" d="M235.027,136.847H125.2c-3.429,0-6.209-2.78-6.209-6.209v-16.296c0-3.429,2.78-6.209,6.209-6.209
		h109.827c3.429,0,6.209,2.78,6.209,6.209v16.296C241.236,134.067,238.456,136.847,235.027,136.847z"/>
</g>
<path style="fill:#E1EFFB;" d="M395.887,164.992h-44.568v283.114c0,3.083,0.346,6.156,1.031,9.162l8.431,36.997
	c1.364,5.984,6.685,10.229,12.822,10.229l0,0c6.137,0,11.458-4.245,12.822-10.229l8.431-36.997c0.685-3.006,1.031-6.079,1.031-9.162
	V164.992z"/>
<g>
	<path style="fill:#FFB123;" d="M375.768,7.505L375.768,7.505c-17.872,0-32.506,14.211-33.029,32.076L339.508,149.9h72.52
		l-3.231-110.318C408.273,21.716,393.64,7.505,375.768,7.505z"/>
	<path style="fill:#FFB123;" d="M430.137,179.745H321.398c-4.33,0-7.84-3.51-7.84-7.84v-41.463c0-4.33,3.51-7.84,7.84-7.84h108.739
		c4.33,0,7.84,3.51,7.84,7.84v41.463C437.977,176.235,434.467,179.745,430.137,179.745z"/>
</g>
<path style="fill:#FF901D;" d="M430.137,122.602H388.69v57.143h41.446c4.33,0,7.84-3.51,7.84-7.84v-41.463
	C437.977,126.112,434.467,122.602,430.137,122.602z"/>
<path d="M137.584,342.741h35.024v35.024c0,4.146,3.36,7.505,7.505,7.505s7.506-3.36,7.506-7.505v-35.024h35.024
	c4.146,0,7.505-3.36,7.505-7.505c0-4.146-3.36-7.505-7.505-7.505h-35.024v-35.024c0-4.146-3.36-7.505-7.506-7.505
	s-7.505,3.36-7.505,7.505v35.024h-35.024c-4.146,0-7.505,3.36-7.505,7.505S133.439,342.741,137.584,342.741z"/>
<path d="M339.815,137.434c-4.146,0-7.506,3.36-7.506,7.505v12.676c0,4.146,3.36,7.505,7.506,7.505c4.146,0,7.505-3.36,7.505-7.505
	v-12.676C347.321,140.794,343.961,137.434,339.815,137.434z"/>
<path d="M363.359,137.434c-4.146,0-7.505,3.36-7.505,7.505v12.676c0,4.146,3.36,7.505,7.505,7.505c4.146,0,7.505-3.36,7.505-7.505
	v-12.676C370.865,140.794,367.505,137.434,363.359,137.434z"/>
<path d="M386.905,137.434c-4.146,0-7.505,3.36-7.505,7.505v12.676c0,4.146,3.36,7.505,7.505,7.505c4.146,0,7.505-3.36,7.505-7.505
	v-12.676C394.411,140.794,391.051,137.434,386.905,137.434z"/>
<path d="M410.45,137.434c-4.146,0-7.505,3.36-7.505,7.505v12.676c0,4.146,3.36,7.505,7.505,7.505c4.146,0,7.505-3.36,7.505-7.505
	v-12.676C417.956,140.794,414.596,137.434,410.45,137.434z"/>
<path d="M275.665,183.474l-35.311-20.969v-19.229c4.924-2.083,8.388-6.963,8.388-12.637v-16.296c0-7.562-6.152-13.714-13.714-13.714
	H125.2c-7.562,0-13.714,6.152-13.714,13.714v16.296c0,5.674,3.463,10.554,8.387,12.637v19.23l-35.311,20.969
	c-11.13,6.609-18.044,18.757-18.044,31.702v262.877c0,18.718,15.229,33.947,33.947,33.947h159.299
	c18.719,0,33.947-15.229,33.947-33.947V215.176C293.71,202.231,286.796,190.084,275.665,183.474z M126.497,115.639h107.234v13.702
	H126.497V115.639z M225.343,144.353v14.918h-90.459v-14.918H225.343z M278.699,478.053c0,10.441-8.495,18.936-18.936,18.936H100.464
	c-10.441,0-18.936-8.495-18.936-18.936v-20.151h197.171V478.053z M278.699,220.563H132.413c-4.146,0-7.506,3.36-7.506,7.505
	s3.36,7.506,7.506,7.506h146.286v207.317H81.528V235.574h15.859c4.146,0,7.506-3.36,7.506-7.506s-3.36-7.505-7.506-7.505H81.528
	v-5.387c0-7.676,4.099-14.877,10.697-18.796l37.214-22.098h101.349l37.213,22.098c6.599,3.919,10.698,11.121,10.698,18.796V220.563z
	"/>
<path d="M430.137,115.097h-11.62l-2.218-75.736C415.653,17.289,397.849,0,375.767,0s-39.885,17.289-40.531,39.361l-2.219,75.736
	h-11.619c-8.462,0-15.346,6.884-15.346,15.345v41.463c0,8.461,6.884,15.345,15.346,15.345h22.416v260.856
	c0,3.64,0.409,7.285,1.218,10.83l8.432,36.997c2.156,9.46,10.437,16.066,20.14,16.066c9.701,0,17.983-6.606,20.14-16.066
	l8.431-36.998c0.808-3.548,1.219-7.192,1.219-10.829v-24.463c0-4.146-3.36-7.505-7.505-7.505c-4.146,0-7.505,3.36-7.505,7.505
	v24.463c0,2.517-0.283,5.039-0.843,7.495l-8.431,36.997c-0.589,2.585-2.853,4.391-5.504,4.391s-4.915-1.805-5.504-4.391
	l-8.432-36.997c-0.559-2.453-0.842-4.974-0.842-7.495V187.25h29.557v200.701c0,4.146,3.36,7.505,7.505,7.505
	c4.146,0,7.505-3.36,7.505-7.505V187.25h26.744c8.461,0,15.345-6.884,15.345-15.345v-41.463
	C445.483,121.981,438.599,115.097,430.137,115.097z M350.242,39.801c0.407-13.901,11.619-24.79,25.526-24.79
	c13.908,0,25.12,10.889,25.527,24.79l2.205,75.296h-55.463L350.242,39.801z M430.471,171.905c0,0.185-0.15,0.334-0.334,0.334
	h-108.74c-0.185,0-0.335-0.15-0.335-0.334v-41.463c0-0.185,0.15-0.334,0.335-0.334h108.739c0.185,0,0.334,0.15,0.334,0.334
	L430.471,171.905L430.471,171.905z"/>
<g>
</g>
<g>
</g>
<g>
</g>
<g>
</g>
<g>
</g>
<g>
</g>
<g>
</g>
<g>
</g>
<g>
</g>
<g>
</g>
<g>
</g>
<g>
</g>
<g>
</g>
<g>
</g>
<g>
</g>
</svg>
