<svg id="Layer_1" enable-background="new 0 0 511.962 511.962" height="512" viewBox="0 0 511.962 511.962" width="512" xmlns="http://www.w3.org/2000/svg"><g><g><g><path d="m171.074 473.043c-12.029-8.559-30.408-23.862-61.853-13.741-36.746 11.827-43.451-8.908-38.186-18.651l-1.721-21.32-21.242-4.818c-60.501 16.889-46.08 89.949 4.145 89.949 38.032 0 49.822-17.009 75.459-13.59 21.738 2.899 34.387 13.057 51.141 13.59 36.209 1.152 42.862-25.986 42.862-25.986s-28.264 10.464-50.605-5.433z" fill="#f5f7fa"/><g><path d="m307.347 45.421 156.929 178.624-257.525 183.743-113.03-128.656z" fill="#a0e2f7"/><path d="m307.347 45.421-20.396 22.314 137.325 156.31-232.937 166.2 15.412 17.543 257.525-183.743z" fill="#85dcf7"/><path d="m322.466 7.498 181.162 206.207-27.235 24.131-181.162-206.207z" fill="#3ac0ee"/><path d="m88.363 357.932 39.866 45.378 78.522 4.478-113.03-128.656z" fill="#3ac0ee"/><path d="m37.755 402.771 39.867 45.378 50.607-44.839-39.866-45.378z" fill="#a0e2f7"/><g><ellipse cx="268.024" cy="239.096" fill="#3ac0ee" rx="75.028" ry="75.259" transform="matrix(.076 -.997 .997 .076 9.293 488.22)"/><path d="m289.08 200.759-19.979 17.926-17.891-19.942-21.49 19.366 17.891 19.942-19.979 17.926 19.336 21.457 19.979-17.926 17.891 19.942 21.49-19.366-17.891-19.942 19.979-17.926z" fill="#fff"/></g></g></g></g><g><path d="m509.263 208.755-181.163-206.207c-3.353-3.159-6.889-3.38-10.608-.663l-27.234 24.131c-3.064 2.715-3.385 7.385-.722 10.494l7.643 8.919-208.994 228.643c-.123.135-.235.276-.347.417-.025.031-.052.06-.076.091-.198.259-.373.53-.533.807-.033.056-.064.113-.095.17-.158.29-.301.587-.418.891-.003.009-.006.018-.009.026-.115.305-.205.617-.279.932-.014.058-.029.116-.042.174-.067.319-.113.641-.138.964-.002.026-.009.051-.011.077l-5.15 75.734-17.4 15.417-1.637-1.864c-2.733-3.111-7.472-3.418-10.584-.684s-3.418 7.473-.684 10.584l1.679 1.911-19.679 17.436c-3.091 2.739-3.387 7.461-.661 10.564l3.049 3.47c-10.874 4.838-19.603 11.895-25.576 20.778-7.066 10.509-10.005 23.253-8.275 35.885 3.557 25.97 24.487 44.107 50.898 44.107 20.637 0 34.396-4.828 45.451-8.708 17.331-6.077 30.932-3.786 48.063 1.706 24.115 7.731 54.14 12.911 73.581-7.945 7.311-7.844 9.433-15.864 9.65-16.753 1.408-5.738-4.349-10.868-9.888-8.819-.136.051-14.061 4.969-28.766 1.892-9.186-1.916-12.676 12.673-3.07 14.683 6.615 1.383 12.996 1.544 18.547 1.146-15.672 13.04-38.112 7.078-55.475 1.513-19.983-6.407-37.467-8.64-57.609-1.576-11.014 3.865-22.403 7.861-40.484 7.861-21.829 0-33.982-16.144-36.037-31.143-3.093-22.583 13.098-36.668 29.501-42.664l16.797 19.12c-1.503 6.495.084 13.598 4.509 18.924 4.793 5.768 16.952 14.12 44.531 5.242 21.906-7.049 36.271-.314 47.434 7.203 7.785 5.244 16.518-6.961 8.379-12.441-12.285-8.273-32.041-18.603-60.408-9.04-20.276 6.835-24.327 1.6-24.327 1.6l19.632-17.395c1.505 1.934 3.617 3.049 6.335 3.344 6.479 0 9.742-7.772 5.631-12.45l-.74-.842 17.434-15.447 75.436 4.302c.144.008.287.012.429.012h.001.001c.009 0 .018-.002.028-.002.359-.001.715-.029 1.065-.081.122-.018.242-.054.364-.078.237-.047.474-.094.704-.164.139-.042.274-.1.411-.15.21-.077.419-.155.621-.251.134-.063.264-.138.395-.21.201-.11.397-.225.587-.353.058-.039.12-.066.177-.106l252.008-179.807 7.643 8.7c2.76 3.142 7.525 3.397 10.608.663l27.235-24.131c3.092-2.734 3.388-7.456.662-10.559zm-430.978 228.786-1.616-1.839s0-.001-.001-.001l-22.963-26.138-5.387-6.131 14.042-12.442 29.967 34.11zm-4.697-56.498 14.111-12.502 18.221 20.74 11.746 13.369-14.111 12.503zm58.203 14.958-35.734-40.674 3.924-57.706 46.262 52.657 43.051 49.003zm345.265-168.773-7.145-8.133c-.005-.005-.009-.011-.014-.016l-116.466-132.567c-6.197-7.05-17.745 2.528-11.27 9.9l111.002 126.348-245.25 174.986-96.694-110.062-7.427-8.454 203.22-222.326 10.085 11.77c6.108 7.126 17.776-2.309 11.391-9.761l-22.762-26.563 16.076-14.244 171.263 194.938z"/><path d="m294.652 195.739c-2.769-3.073-7.503-3.324-10.58-.562l-14.396 12.917-12.883-14.359c-3.379-3.12-6.913-3.307-10.604-.563l-21.49 19.366c-3.072 2.769-3.323 7.501-.562 10.58l12.883 14.359-14.397 12.917c-3.12 3.379-3.307 6.913-.563 10.603l19.335 21.457c2.769 3.073 7.502 3.324 10.581.562l14.396-12.917 12.884 14.359c2.787 3.106 7.542 3.321 10.603.563l21.49-19.365c3.072-2.769 3.324-7.502.562-10.581l-12.883-14.359 14.396-12.918c3.12-3.379 3.307-6.913.563-10.603zm-11.797 49.412 12.894 14.371-10.348 9.324-12.872-14.347c-2.783-3.102-7.529-3.32-10.591-.574l-14.409 12.928-9.294-10.314 14.385-12.907c3.083-2.767 3.34-7.508.574-10.591l-12.894-14.37 10.347-9.324 12.873 14.347c3.372 3.115 6.902 3.307 10.591.574l14.409-12.928 9.294 10.314-14.385 12.907c-3.084 2.765-3.341 7.507-.574 10.59z"/><path d="m213.268 177.192c-16.578 14.581-26.465 34.729-27.841 56.733-1.376 22.006 5.925 43.232 20.56 59.768 16.34 18.464 39.179 27.896 62.123 27.894 19.45-.001 38.977-6.782 54.671-20.585 16.578-14.581 26.465-34.729 27.841-56.733 1.377-22.007-5.925-43.233-20.56-59.768-30.194-34.116-82.587-37.397-116.794-7.309zm122.382 66.14c-1.125 17.997-9.214 34.478-22.776 46.406-28.017 24.642-70.926 21.955-95.655-5.987-11.973-13.528-17.947-30.891-16.821-48.89 1.125-17.997 9.215-34.478 22.777-46.407 12.855-11.307 28.844-16.859 44.775-16.859 18.788 0 37.497 7.726 50.879 22.846 11.973 13.529 17.947 30.892 16.821 48.891z"/></g></g></svg>