<svg height="512" viewBox="0 0 256 256" width="512" xmlns="http://www.w3.org/2000/svg"><path d="m119.925 13.168h16.134v63.674h-16.134z" fill="#a4c9ff"/><path d="m136.06 78.843h-16.135a2 2 0 0 1 -2-2v-63.675a2 2 0 0 1 2-2h16.135a2 2 0 0 1 2 2v63.675a2 2 0 0 1 -2 2zm-14.135-4h12.135v-59.675h-12.135z" fill="#3762cc"/><path d="m167.513 91.025h-79.026l-13.706 5.18a36 36 0 0 0 -23.273 33.675v112.12a6 6 0 0 0 6 6h140.984a6 6 0 0 0 6-6v-112.12a36 36 0 0 0 -23.273-33.675z" fill="#6bdddd"/><path d="m91.512 76.843h72.961a3.025 3.025 0 0 1 3.025 3.025v11.157a0 0 0 0 1 0 0h-79.011a0 0 0 0 1 0 0v-11.157a3.025 3.025 0 0 1 3.025-3.025z" fill="#a4c9ff"/><path d="m171.761 8h-75.788a7.385 7.385 0 0 0 -7.483 6.964 7.185 7.185 0 0 0 7.182 7.406h95.51a1 1 0 0 0 1-1v-9.24a1 1 0 0 0 -.842-.988z" fill="#e0ebfc"/><circle cx="127.992" cy="168.336" fill="#e0ebfc" r="43.866"/><path d="m151.815 159.261h-14.747v-14.748a3 3 0 0 0 -3-3h-12.151a3 3 0 0 0 -3 3v14.748h-14.748a3 3 0 0 0 -3 3v12.151a3 3 0 0 0 3 3h14.748v14.747a3 3 0 0 0 3 3h12.151a3 3 0 0 0 3-3v-14.747h14.747a3 3 0 0 0 3-3v-12.151a3 3 0 0 0 -3-3z" fill="#f9a7a7"/><path d="m190.313 36.492-7.8 14.091a11.058 11.058 0 0 0 1.763 13.086 11.059 11.059 0 0 0 15.821 0 11.059 11.059 0 0 0 1.764-13.086l-7.805-14.091a2.137 2.137 0 0 0 -3.743 0z" fill="#a4c9ff"/><path d="m108.328 51.752h39.328a3.025 3.025 0 0 1 3.025 3.025v22.066a0 0 0 0 1 0 0h-45.381a0 0 0 0 1 0 0v-22.066a3.025 3.025 0 0 1 3.028-3.025z" fill="#4671c6"/><g fill="#3762cc"><path d="m198.492 250h-140.984a8.009 8.009 0 0 1 -8-8v-112.12a38.193 38.193 0 0 1 24.566-35.547l13.7-5.179a2.011 2.011 0 0 1 .707-.129h79.028a2.011 2.011 0 0 1 .707.129l13.7 5.179a38.193 38.193 0 0 1 24.566 35.547v112.12a8.009 8.009 0 0 1 -7.99 8zm-109.64-156.975-13.364 5.051a34.17 34.17 0 0 0 -21.98 31.8v112.124a4 4 0 0 0 4 4h140.984a4 4 0 0 0 4-4v-112.12a34.17 34.17 0 0 0 -21.98-31.8l-13.364-5.051z"/><path d="m167.5 93.025h-79.014a2 2 0 0 1 -2-2v-11.157a5.031 5.031 0 0 1 5.026-5.025h72.961a5.03 5.03 0 0 1 5.025 5.025v11.157a2 2 0 0 1 -1.998 2zm-77.012-4h75.012v-9.157a1.026 1.026 0 0 0 -1.025-1.025h-72.963a1.027 1.027 0 0 0 -1.026 1.025z"/><path d="m191.182 24.37h-95.51a9.186 9.186 0 0 1 -9.181-9.47 9.411 9.411 0 0 1 9.482-8.9h75.789a1.983 1.983 0 0 1 .317.025l19.578 3.142a2.989 2.989 0 0 1 2.525 2.962v9.241a3 3 0 0 1 -3 3zm-95.209-14.37a5.384 5.384 0 0 0 -5.484 5.024 5.186 5.186 0 0 0 5.183 5.346h94.51v-7.388l-18.582-2.982z"/><path d="m192.182 69a13.058 13.058 0 0 1 -11.423-19.386l7.8-14.091a4.137 4.137 0 0 1 7.237 0l7.8 14.091a13.059 13.059 0 0 1 -11.414 19.386zm-.119-31.539-7.8 14.091a9.058 9.058 0 1 0 15.847 0l-7.8-14.091c-.03-.055-.208-.055-.239 0z"/><path d="m150.682 78.843h-45.382a2 2 0 0 1 -2-2v-22.066a5.03 5.03 0 0 1 5.024-5.025h39.328a5.031 5.031 0 0 1 5.026 5.025v22.066a2 2 0 0 1 -1.996 2zm-43.378-4h41.378v-20.066a1.027 1.027 0 0 0 -1.026-1.025h-39.328a1.026 1.026 0 0 0 -1.024 1.025z"/><path d="m127.992 214.2a45.866 45.866 0 1 1 45.865-45.866 45.918 45.918 0 0 1 -45.865 45.866zm0-87.731a41.866 41.866 0 1 0 41.865 41.865 41.912 41.912 0 0 0 -41.865-41.863z"/></g></svg>